<svg xmlns="http://www.w3.org/2000/svg" width="12.851" height="14.687" viewBox="0 0 12.851 14.687">
  <path id="calendar-alt" d="M4.245,8.261H3.1a.345.345,0,0,1-.344-.344V6.77A.345.345,0,0,1,3.1,6.425H4.245a.345.345,0,0,1,.344.344V7.917A.345.345,0,0,1,4.245,8.261Zm3.1-.344V6.77A.345.345,0,0,0,7,6.425H5.852a.345.345,0,0,0-.344.344V7.917a.345.345,0,0,0,.344.344H7A.345.345,0,0,0,7.343,7.917Zm2.754,0V6.77a.345.345,0,0,0-.344-.344H8.606a.345.345,0,0,0-.344.344V7.917a.345.345,0,0,0,.344.344H9.753A.345.345,0,0,0,10.1,7.917ZM7.343,10.671V9.523A.345.345,0,0,0,7,9.179H5.852a.345.345,0,0,0-.344.344v1.147a.345.345,0,0,0,.344.344H7A.345.345,0,0,0,7.343,10.671Zm-2.754,0V9.523a.345.345,0,0,0-.344-.344H3.1a.345.345,0,0,0-.344.344v1.147a.345.345,0,0,0,.344.344H4.245A.345.345,0,0,0,4.59,10.671Zm5.508,0V9.523a.345.345,0,0,0-.344-.344H8.606a.345.345,0,0,0-.344.344v1.147a.345.345,0,0,0,.344.344H9.753A.345.345,0,0,0,10.1,10.671Zm2.754-7.458v10.1a1.377,1.377,0,0,1-1.377,1.377H1.377A1.377,1.377,0,0,1,0,13.31V3.213A1.377,1.377,0,0,1,1.377,1.836H2.754V.344A.345.345,0,0,1,3.1,0H4.245A.345.345,0,0,1,4.59.344V1.836H8.261V.344A.345.345,0,0,1,8.606,0H9.753A.345.345,0,0,1,10.1.344V1.836h1.377A1.377,1.377,0,0,1,12.851,3.213Zm-1.377,9.925V4.59H1.377v8.548a.173.173,0,0,0,.172.172H11.3A.173.173,0,0,0,11.474,13.138Z" fill="#afafaf"/>
</svg>
