<svg xmlns="http://www.w3.org/2000/svg" width="17.205" height="11.47" viewBox="0 0 17.205 11.47">
  <path id="folder-open" d="M15.77,68.779H14.338V67.345A1.434,1.434,0,0,0,12.9,65.912H8.125L6.213,64H1.434A1.434,1.434,0,0,0,0,65.434v8.6A1.434,1.434,0,0,0,1.434,75.47H13.382A1.434,1.434,0,0,0,14.6,74.8l2.388-3.823A1.435,1.435,0,0,0,15.77,68.779ZM1.613,65.434H5.619l1.912,1.912h5.194a.179.179,0,0,1,.179.179v1.255H4.54a1.434,1.434,0,0,0-1.228.693L1.434,72.586V65.613a.179.179,0,0,1,.179-.179Zm11.769,8.6H2.151l2.307-3.823H15.771Z" transform="translate(0 -64)" fill="#afafaf"/>
</svg>
