<svg xmlns="http://www.w3.org/2000/svg" width="147.664" height="147.664" viewBox="0 0 147.664 147.664">
  <path id="play-circle" d="M116.277,76.473,63.88,44.618A7.158,7.158,0,0,0,53.252,50.87v61.924a7.162,7.162,0,0,0,10.628,6.252l52.4-30.069A7.168,7.168,0,0,0,116.277,76.473Zm39.387,5.359a73.832,73.832,0,1,0-73.832,73.832A73.819,73.819,0,0,0,155.664,81.832Zm-133.374,0a59.542,59.542,0,1,1,59.542,59.542A59.526,59.526,0,0,1,22.29,81.832Z" transform="translate(-8 -8)" fill="#fff" opacity="0.441"/>
</svg>
