<svg xmlns="http://www.w3.org/2000/svg" width="74.584" height="65.562" viewBox="0 0 74.584 65.562">
  <path id="quote-right" d="M66.585,32H48.217a6.89,6.89,0,0,0-6.888,6.888V57.256a6.89,6.89,0,0,0,6.888,6.888H59.7v9.184a9.193,9.193,0,0,1-9.184,9.184H49.365a3.436,3.436,0,0,0-3.444,3.444v6.888a3.436,3.436,0,0,0,3.444,3.444h1.148a22.954,22.954,0,0,0,22.96-22.96V38.888A6.89,6.89,0,0,0,66.585,32ZM25.256,32H6.888A6.89,6.89,0,0,0,0,38.888V57.256a6.89,6.89,0,0,0,6.888,6.888h11.48v9.184a9.193,9.193,0,0,1-9.184,9.184H8.036a3.436,3.436,0,0,0-3.444,3.444v6.888a3.436,3.436,0,0,0,3.444,3.444H9.184a22.954,22.954,0,0,0,22.96-22.96V38.888A6.89,6.89,0,0,0,25.256,32Z" transform="matrix(-1, -0.017, 0.017, -1, 72.904, 97.557)" fill="#c3c3c3" opacity="0.2"/>
</svg>
