<svg xmlns="http://www.w3.org/2000/svg" width="170.838" height="129.705" viewBox="0 0 170.838 129.705">
  <g id="Group_479" data-name="Group 479" transform="translate(-1379.384 -1236.554)">
    <g id="Group_476" data-name="Group 476" transform="translate(1379.384 1318.323)" opacity="0.43">
      <g id="Group_475" data-name="Group 475" transform="translate(0 0)">
        <path id="Path_844" data-name="Path 844" d="M1404.384,1348.185c-6.522,7.255-13.117,14.509-18.466,22.643-3,4.617-6.375,8.794-6.522,14.509-.073,3.371.073,8.647,4.1,9.453,5.276,1.1,11.212.733,16.634.733,7.4,0,14.876.44,22.2.22,24.915-.806,49.9-1.246,74.891-1.465,4.1,0,8.28-.147,12.457,0,5.423.146,10.772.146,16.195-.147,5.862-.366,12.677.147,17.44-3.591,1.392-1.1,1.1-5.716,1.026-7.108-.073-1.466.147-6.156-1.392-7.108-4.03-2.345-7.694-1.539-12.164-1.172-4.4.366-8.867.586-13.264.66-4.1,0-8.207-.22-12.311-.22-9.38,0-18.759.147-28.139.293-20.372.366-40.89.293-61.188,1.905-6.961.586-13.923.733-20.884.879-2.858.073-5.716.147-8.574.073-.953,0-1.832-.073-2.785-.146-1.392-.073-.806-.513-.073.733.44,3.664.879,7.4,1.319,11.065-.513,3.957.879-.879,1.466-1.979.806-1.612,1.612-3.224,2.565-4.763a79.038,79.038,0,0,1,6.009-8.647c4.03-4.983,8.867-9.16,11.5-15.169a14.105,14.105,0,0,0,.733-7.987c-.22-.66-1.319-5.2-2.785-3.664Z" transform="translate(-1379.384 -1347.869)" fill="#4a4ad0"/>
      </g>
    </g>
    <path id="Path_845" data-name="Path 845" d="M1533.532,1319.959H1416.505a1.553,1.553,0,0,1-1.466-1.612l-.44-77.822a3.049,3.049,0,0,1,2.858-3.224h114.389a2.951,2.951,0,0,1,2.785,3.078l.44,77.822A1.566,1.566,0,0,1,1533.532,1319.959Z" transform="translate(-9.41)" fill="none" stroke="#4a4ad0" stroke-linecap="round" stroke-linejoin="round" stroke-miterlimit="10" stroke-width="1.492"/>
    <path id="Path_846" data-name="Path 846" d="M1551.324,1385.64H1386.3l21.177-35.54h120.1Z" transform="translate(-1.848 -30.141)" fill="#ededfa" stroke="#4a4ad0" stroke-linecap="round" stroke-linejoin="round" stroke-miterlimit="10" stroke-width="1.492"/>
    <path id="Path_847" data-name="Path 847" d="M1547.66,1402.191h-157.77a3.6,3.6,0,0,1-3.591-3.591h164.951A3.506,3.506,0,0,1,1547.66,1402.191Z" transform="translate(-1.848 -43.101)" fill="#fff" stroke="#4a4ad0" stroke-linecap="round" stroke-linejoin="round" stroke-miterlimit="10" stroke-width="1.492"/>
    <rect id="Rectangle_42" data-name="Rectangle 42" width="114.022" height="67.856" transform="translate(1408.048 1245.654)" fill="none" stroke="#4a4ad0" stroke-linecap="round" stroke-linejoin="round" stroke-miterlimit="10" stroke-width="1.492"/>
    <circle id="Ellipse_42" data-name="Ellipse 42" cx="0.733" cy="0.733" r="0.733" transform="translate(1468.137 1241.037)" fill="none" stroke="#4a4ad0" stroke-linecap="round" stroke-linejoin="round" stroke-miterlimit="10" stroke-width="1.492"/>
    <g id="XMLID_4_" transform="translate(1412.518 1254.521)">
      <g id="Group_477" data-name="Group 477" transform="translate(0 0)">
        <rect id="Rectangle_43" data-name="Rectangle 43" width="11.651" height="10.625" transform="translate(59.063 10.552)" fill="#fac2ed"/>
        <rect id="Rectangle_44" data-name="Rectangle 44" width="11.578" height="10.625" transform="translate(47.412 31.803)" fill="#fac2ed"/>
        <rect id="Rectangle_45" data-name="Rectangle 45" width="11.578" height="10.625" transform="translate(47.412 10.552)" fill="#fac2ed"/>
        <rect id="Rectangle_46" data-name="Rectangle 46" width="11.651" height="10.625" transform="translate(35.833 31.803)" fill="#fac2ed"/>
        <rect id="Rectangle_47" data-name="Rectangle 47" width="11.651" height="10.625" transform="translate(35.833 10.552)" fill="#fac2ed"/>
        <rect id="Rectangle_48" data-name="Rectangle 48" width="11.651" height="10.625" transform="translate(24.182 31.803)" fill="#fac2ed"/>
        <rect id="Rectangle_49" data-name="Rectangle 49" width="11.651" height="10.625" transform="translate(12.604 31.803)" fill="#fac2ed"/>
        <path id="Path_848" data-name="Path 848" d="M1437.284,1318.6v10.625H1424.9V1318.6h12.384Z" transform="translate(-1424.68 -1276.245)" fill="#f5e83a"/>
        <path id="Path_849" data-name="Path 849" d="M1437.257,1304.2v10.552h-12.384l-.073-10.552h12.457Z" transform="translate(-1424.653 -1272.397)" fill="#f5e83a"/>
        <path id="Path_850" data-name="Path 850" d="M1437.257,1289.7v10.625H1424.8V1289.7h12.457Z" transform="translate(-1424.653 -1268.522)" fill="#f5e83a"/>
        <path id="Path_851" data-name="Path 851" d="M1437.231,1275.2v10.625h-12.457l-.073-10.625Z" transform="translate(-1424.627 -1264.648)" fill="#f5e83a"/>
        <path id="Path_852" data-name="Path 852" d="M1437.2,1260.8v10.552h-12.531l-.073-10.552Z" transform="translate(-1424.6 -1260.8)" fill="#f5e83a"/>
      </g>
      <g id="Group_478" data-name="Group 478" transform="translate(0 0)">
        <path id="Path_853" data-name="Path 853" d="M1529.609,1303.155v10.625H1424.82v-10.625l-.073-10.552v-10.625l-.073-10.625-.073-10.552h104.862v10.552l.073,10.625V1292.6Z" transform="translate(-1424.6 -1260.8)" fill="none" stroke="#4a4ad0" stroke-linecap="round" stroke-linejoin="round" stroke-miterlimit="10" stroke-width="1.492"/>
        <path id="Path_854" data-name="Path 854" d="M1424.7,1275.2h104.789" transform="translate(-1424.627 -1264.648)" fill="none" stroke="#4a4ad0" stroke-linecap="round" stroke-linejoin="round" stroke-miterlimit="10" stroke-width="1.492"/>
        <path id="Path_855" data-name="Path 855" d="M1425.6,1289.7h103.616" transform="translate(-1424.867 -1268.522)" fill="none" stroke="#4a4ad0" stroke-linecap="round" stroke-linejoin="round" stroke-miterlimit="10" stroke-width="1.492"/>
        <path id="Path_856" data-name="Path 856" d="M1425.8,1304.2h103.616" transform="translate(-1424.921 -1272.397)" fill="none" stroke="#4a4ad0" stroke-linecap="round" stroke-linejoin="round" stroke-miterlimit="10" stroke-width="1.492"/>
        <path id="Path_857" data-name="Path 857" d="M1425.1,1318.6h104.2" transform="translate(-1424.734 -1276.245)" fill="none" stroke="#4a4ad0" stroke-linecap="round" stroke-linejoin="round" stroke-miterlimit="10" stroke-width="1.492"/>
        <path id="Path_858" data-name="Path 858" d="M1441.8,1260.8v52.981" transform="translate(-1429.196 -1260.8)" fill="none" stroke="#4a4ad0" stroke-linecap="round" stroke-linejoin="round" stroke-miterlimit="10" stroke-width="1.492"/>
        <path id="Path_859" data-name="Path 859" d="M1473.5,1260.8v52.981" transform="translate(-1437.667 -1260.8)" fill="none" stroke="#4a4ad0" stroke-linecap="round" stroke-linejoin="round" stroke-miterlimit="10" stroke-width="1.492"/>
        <path id="Path_860" data-name="Path 860" d="M1457.6,1260.8v52.981" transform="translate(-1433.418 -1260.8)" fill="none" stroke="#4a4ad0" stroke-linecap="round" stroke-linejoin="round" stroke-miterlimit="10" stroke-width="1.492"/>
        <path id="Path_861" data-name="Path 861" d="M1505.2,1260.8v52.981" transform="translate(-1446.137 -1260.8)" fill="none" stroke="#4a4ad0" stroke-linecap="round" stroke-linejoin="round" stroke-miterlimit="10" stroke-width="1.492"/>
        <path id="Path_862" data-name="Path 862" d="M1489.3,1260.8v52.981" transform="translate(-1441.888 -1260.8)" fill="none" stroke="#4a4ad0" stroke-linecap="round" stroke-linejoin="round" stroke-miterlimit="10" stroke-width="1.492"/>
        <path id="Path_863" data-name="Path 863" d="M1536.9,1260.8v52.981" transform="translate(-1454.608 -1260.8)" fill="none" stroke="#4a4ad0" stroke-linecap="round" stroke-linejoin="round" stroke-miterlimit="10" stroke-width="1.492"/>
        <path id="Path_864" data-name="Path 864" d="M1521,1260.8v52.981" transform="translate(-1450.359 -1260.8)" fill="none" stroke="#4a4ad0" stroke-linecap="round" stroke-linejoin="round" stroke-miterlimit="10" stroke-width="1.492"/>
        <path id="Path_865" data-name="Path 865" d="M1552.7,1261.3v51.808" transform="translate(-1458.829 -1260.934)" fill="none" stroke="#4a4ad0" stroke-linecap="round" stroke-linejoin="round" stroke-miterlimit="10" stroke-width="1.492"/>
      </g>
    </g>
    <path id="Path_866" data-name="Path 866" d="M1398.6,1383.33l12.238-21.251a3.88,3.88,0,0,1,3.371-1.979h113.362a3.779,3.779,0,0,1,3.3,1.832l8.061,12.751" transform="translate(-5.135 -32.813)" fill="none" stroke="#4a4ad0" stroke-linecap="round" stroke-linejoin="round" stroke-miterlimit="10" stroke-width="1.492"/>
    <line id="Line_143" data-name="Line 143" x2="27.699" transform="translate(1413.177 1250.344)" fill="none" stroke="#4a4ad0" stroke-linecap="round" stroke-linejoin="round" stroke-miterlimit="10" stroke-width="1.492"/>
    <line id="Line_144" data-name="Line 144" x2="14.436" transform="translate(1445.2 1250.344)" fill="none" stroke="#4a4ad0" stroke-linecap="round" stroke-linejoin="round" stroke-miterlimit="10" stroke-width="1.492"/>
    <path id="Path_867" data-name="Path 867" d="M1478.188,1278.189c-.073-.66,0,.66,0,.806.073,1.1-.146,2.931.513,3.884.953-1.026,1.539-2.638,2.345-3.81a21.582,21.582,0,0,1,7.621-6.668" transform="translate(-26.393 -9.379)" fill="none" stroke="#4a4ad0" stroke-linecap="round" stroke-linejoin="round" stroke-miterlimit="10" stroke-width="1.492"/>
    <path id="Path_868" data-name="Path 868" d="M1494.2,1279.094a5.944,5.944,0,0,0,.733,3.3,25.531,25.531,0,0,1,10.039-10.992" transform="translate(-30.676 -9.112)" fill="none" stroke="#4a4ad0" stroke-linecap="round" stroke-linejoin="round" stroke-miterlimit="10" stroke-width="1.492"/>
    <path id="Path_869" data-name="Path 869" d="M1510.3,1278.308a6.426,6.426,0,0,0,1.466,3c3-4.1,5.349-8.72,10.772-10.113" transform="translate(-34.982 -9.058)" fill="none" stroke="#4a4ad0" stroke-linecap="round" stroke-linejoin="round" stroke-miterlimit="10" stroke-width="1.492"/>
    <path id="Path_870" data-name="Path 870" d="M1447.3,1308.515a10.819,10.819,0,0,0,1.465,4.323c2.638-4.47,4.836-8.281,9.453-11.138" transform="translate(-18.148 -17.208)" fill="none" stroke="#4a4ad0" stroke-linecap="round" stroke-linejoin="round" stroke-miterlimit="10" stroke-width="1.492"/>
    <path id="Path_871" data-name="Path 871" d="M1464.1,1308.381c.806.733,1.026,2.052,1.832,2.858.733-.586,1.392-2.858,1.905-3.664,1.759-3,3.811-4.25,6.375-6.375" transform="translate(-22.637 -17.075)" fill="none" stroke="#4a4ad0" stroke-linecap="round" stroke-linejoin="round" stroke-miterlimit="10" stroke-width="1.492"/>
    <path id="Path_872" data-name="Path 872" d="M1479,1306.781c.073.513.806,2.565,1.685,3,.66-1.026,1.1-2.345,1.759-3.444,1.979-3.224,5.276-5.423,8.134-7.841" transform="translate(-26.618 -16.353)" fill="none" stroke="#4a4ad0" stroke-linecap="round" stroke-linejoin="round" stroke-miterlimit="10" stroke-width="1.492"/>
    <path id="Path_873" data-name="Path 873" d="M1492.3,1306.135c1.539.879,1.832,3.224,3,4.4.366-5.349,5.862-9.307,10.186-11.432" transform="translate(-30.172 -16.514)" fill="none" stroke="#4a4ad0" stroke-linecap="round" stroke-linejoin="round" stroke-miterlimit="10" stroke-width="1.492"/>
    <path id="Path_874" data-name="Path 874" d="M1547.719,1374.9c-5.423,1.392-18.979,6.449-19.419,11.358,4.47,1.832,14-3.371,17.734-4.69,4.1-1.392,12.164-4.91,16.708-3.737.146,3.224-6.375,4.177-8.354,6.449-4.177,4.836,6.815,2.418,9.819,1.685" transform="translate(-39.792 -36.768)" fill="none" stroke="#4a4ad0" stroke-linecap="round" stroke-linejoin="round" stroke-miterlimit="10" stroke-width="1.492"/>
    <path id="Path_875" data-name="Path 875" d="M1428.6,1269.583a13.5,13.5,0,0,1,2.2-4.91c.806.806,1.1,2.491,1.539,3.591.733-1.466,1.905-2.345,2.858-3.664a12.552,12.552,0,0,1,.66,4.69" transform="translate(-13.151 -7.295)" fill="none" stroke="#4a4ad0" stroke-linecap="round" stroke-linejoin="round" stroke-miterlimit="10" stroke-width="1.492"/>
    <path id="Path_876" data-name="Path 876" d="M1428.9,1279.193c1.685.073,3.444-.293,5.13-.293" transform="translate(-13.231 -11.116)" fill="none" stroke="#4a4ad0" stroke-linecap="round" stroke-linejoin="round" stroke-miterlimit="10" stroke-width="1.492"/>
    <path id="Path_877" data-name="Path 877" d="M1432,1279.4a18.193,18.193,0,0,0,.44,3.957" transform="translate(-14.06 -11.25)" fill="none" stroke="#4a4ad0" stroke-linecap="round" stroke-linejoin="round" stroke-miterlimit="10" stroke-width="1.492"/>
    <path id="Path_878" data-name="Path 878" d="M1428.6,1293.266c.366,1.539.293,3,.953,4.47a15.329,15.329,0,0,1,2.125-3.224c.66,1.026.44,2.345,1.1,3.371,1.246-1.1,2.052-3.371,2.565-4.983" transform="translate(-13.151 -14.857)" fill="none" stroke="#4a4ad0" stroke-linecap="round" stroke-linejoin="round" stroke-miterlimit="10" stroke-width="1.492"/>
    <path id="Path_879" data-name="Path 879" d="M1428.6,1308.106a7.9,7.9,0,0,1,1.392-.22c1.319-.147,2.565-.44,3.884-.586h1.319" transform="translate(-13.151 -18.705)" fill="none" stroke="#4a4ad0" stroke-linecap="round" stroke-linejoin="round" stroke-miterlimit="10" stroke-width="1.492"/>
    <path id="Path_880" data-name="Path 880" d="M1432.6,1308.1a20.806,20.806,0,0,1,.733,4.763" transform="translate(-14.22 -18.918)" fill="none" stroke="#4a4ad0" stroke-linecap="round" stroke-linejoin="round" stroke-miterlimit="10" stroke-width="1.492"/>
    <path id="Path_881" data-name="Path 881" d="M1430.74,1322.1c.073,1.612-.44,3.224-.44,4.836a6.272,6.272,0,0,1,0,1.173" transform="translate(-13.605 -22.659)" fill="none" stroke="#4a4ad0" stroke-linecap="round" stroke-linejoin="round" stroke-miterlimit="10" stroke-width="1.492"/>
    <path id="Path_882" data-name="Path 882" d="M1430.8,1321.856a20.271,20.271,0,0,1,3.664-.073" transform="translate(-13.739 -22.562)" fill="none" stroke="#4a4ad0" stroke-linecap="round" stroke-linejoin="round" stroke-miterlimit="10" stroke-width="1.492"/>
    <path id="Path_883" data-name="Path 883" d="M1431.1,1325.287a9.74,9.74,0,0,1,2.931.146" transform="translate(-13.819 -23.501)" fill="none" stroke="#4a4ad0" stroke-linecap="round" stroke-linejoin="round" stroke-miterlimit="10" stroke-width="1.492"/>
  </g>
</svg>
