<svg xmlns="http://www.w3.org/2000/svg" width="268.822" height="133.964" viewBox="0 0 268.822 133.964">
  <g id="Group_501" data-name="Group 501" transform="translate(-706.65 -1201.023)">
    <path id="XMLID_552_" d="M1582.373,950.765l-79.582-6.658a2.956,2.956,0,0,1-2.695-3.25l5.311-53.345a2.849,2.849,0,0,1,3.092-2.616l79.582,4.835a2.972,2.972,0,0,1,2.774,3.25l-5.311,55.168A2.922,2.922,0,0,1,1582.373,950.765Z" transform="translate(-665.318 350.076)" fill="none" stroke="#4a4ad0" stroke-linecap="round" stroke-linejoin="round" stroke-miterlimit="10" stroke-width="1.5"/>
    <path id="XMLID_551_" d="M1578.542,968.8v.555a15.239,15.239,0,0,1-1.744,6.42L1564.275,999.4a4.077,4.077,0,0,1-3.963,2.14l-89.49-9.036a4.486,4.486,0,0,1-4.122-3.329" transform="translate(-658.396 332.675)" fill="none" stroke="#4a4ad0" stroke-linecap="round" stroke-linejoin="round" stroke-miterlimit="10" stroke-width="1.5"/>
    <path id="XMLID_550_" d="M1559.8,996.713l-92.422-8.878a.875.875,0,0,1-.555-1.506l26-27.029,85.447,7.134-16.011,29.011A2.668,2.668,0,0,1,1559.8,996.713Z" transform="translate(-658.365 334.645)" fill="none" stroke="#4a4ad0" stroke-linecap="round" stroke-linejoin="round" stroke-miterlimit="10" stroke-width="1.5"/>
    <path id="XMLID_549_" d="M1508.892,890.979l-4.994,48.906a1.881,1.881,0,0,0,1.744,2.061l75.618,6.183a1.922,1.922,0,0,0,2.061-1.664l4.914-48.51a1.936,1.936,0,0,0-1.744-2.061l-77.6-4.994" transform="translate(-666.108 348.828)" fill="none" stroke="#4a4ad0" stroke-linecap="round" stroke-linejoin="round" stroke-miterlimit="10" stroke-width="1.5"/>
    <g id="XMLID_541_" transform="translate(844.845 1244.801)">
      <path id="XMLID_548_" d="M1525.641,897.934l-11.969-.634-.872,7.609,12.286,1.11Z" transform="translate(-1512.8 -897.3)" fill="#f9ef2f" stroke="#4a4ad0" stroke-linecap="round" stroke-linejoin="round" stroke-miterlimit="10" stroke-width="1"/>
      <path id="XMLID_547_" d="M1513.9,898l5.469,3.8,6.5-3.725" transform="translate(-1513.028 -897.445)" fill="none" stroke="#4a4ad0" stroke-linecap="round" stroke-linejoin="round" stroke-miterlimit="10" stroke-width="1"/>
      <line id="XMLID_543_" x1="3.646" y1="5.549" transform="translate(8.64 3.171)" fill="#f9ef2f" stroke="#4a4ad0" stroke-linecap="round" stroke-linejoin="round" stroke-miterlimit="10" stroke-width="1"/>
      <line id="XMLID_542_" y1="4.36" x2="3.884" transform="translate(0 3.25)" fill="#f9ef2f" stroke="#4a4ad0" stroke-linecap="round" stroke-linejoin="round" stroke-miterlimit="10" stroke-width="1"/>
    </g>
    <g id="XMLID_536_" transform="translate(843.735 1255.423)">
      <path id="XMLID_540_" d="M1524.241,911.413l-11.969-.713-.872,7.689,12.286,1.03Z" transform="translate(-1511.4 -910.7)" fill="#f9ef2f" stroke="#4a4ad0" stroke-linecap="round" stroke-linejoin="round" stroke-miterlimit="10" stroke-width="1"/>
      <path id="XMLID_539_" d="M1512.5,911.4l5.469,3.8,6.5-3.646" transform="translate(-1511.628 -910.845)" fill="none" stroke="#4a4ad0" stroke-linecap="round" stroke-linejoin="round" stroke-miterlimit="10" stroke-width="1"/>
      <line id="XMLID_538_" x1="3.646" y1="5.469" transform="translate(8.64 3.25)" fill="#f9ef2f" stroke="#4a4ad0" stroke-linecap="round" stroke-linejoin="round" stroke-miterlimit="10" stroke-width="1"/>
      <line id="XMLID_537_" y1="4.36" x2="3.884" transform="translate(0 3.329)" fill="#f9ef2f" stroke="#4a4ad0" stroke-linecap="round" stroke-linejoin="round" stroke-miterlimit="10" stroke-width="1"/>
    </g>
    <g id="XMLID_531_" transform="translate(842.625 1266.678)">
      <path id="XMLID_535_" d="M1522.762,925.534l-11.969-.634-.792,7.609,12.286,1.11Z" transform="translate(-1510 -924.9)" fill="#f9ef2f" stroke="#4a4ad0" stroke-linecap="round" stroke-linejoin="round" stroke-miterlimit="10" stroke-width="1"/>
      <path id="XMLID_534_" d="M1511,925.6l5.548,3.8,6.42-3.725" transform="translate(-1510.207 -925.045)" fill="none" stroke="#4a4ad0" stroke-linecap="round" stroke-linejoin="round" stroke-miterlimit="10" stroke-width="1"/>
      <line id="XMLID_533_" x1="3.646" y1="5.549" transform="translate(8.64 3.171)" fill="#f9ef2f" stroke="#4a4ad0" stroke-linecap="round" stroke-linejoin="round" stroke-miterlimit="10" stroke-width="1"/>
      <line id="XMLID_532_" y1="4.36" x2="3.884" transform="translate(0 3.25)" fill="#f9ef2f" stroke="#4a4ad0" stroke-linecap="round" stroke-linejoin="round" stroke-miterlimit="10" stroke-width="1"/>
    </g>
    <g id="XMLID_526_" transform="translate(841.516 1277.3)">
      <path id="XMLID_530_" d="M1521.362,939.013l-11.969-.714-.793,7.689,12.286,1.03Z" transform="translate(-1508.6 -938.3)" fill="#f9ef2f" stroke="#4a4ad0" stroke-linecap="round" stroke-linejoin="round" stroke-miterlimit="10" stroke-width="1"/>
      <path id="XMLID_529_" d="M1509.6,939l5.549,3.8,6.42-3.646" transform="translate(-1508.807 -938.445)" fill="none" stroke="#4a4ad0" stroke-linecap="round" stroke-linejoin="round" stroke-miterlimit="10" stroke-width="1"/>
      <line id="XMLID_528_" x1="3.646" y1="5.469" transform="translate(8.64 3.25)" fill="#f9ef2f" stroke="#4a4ad0" stroke-linecap="round" stroke-linejoin="round" stroke-miterlimit="10" stroke-width="1"/>
      <line id="XMLID_527_" y1="4.36" x2="3.884" transform="translate(0 3.329)" fill="#f9ef2f" stroke="#4a4ad0" stroke-linecap="round" stroke-linejoin="round" stroke-miterlimit="10" stroke-width="1"/>
    </g>
    <path id="XMLID_525_" d="M1535.612,903.4c.159.634-3.012,30.2-3.012,30.2l49.382,4.042,3.17-30.6Z" transform="translate(-672.061 346.236)" fill="none" stroke="#4a4ad0" stroke-linecap="round" stroke-linejoin="round" stroke-miterlimit="10" stroke-width="1.5"/>
    <g id="XMLID_516_" transform="translate(874.331 1254.518)">
      <path id="XMLID_524_" d="M1563.944,929.479a1.264,1.264,0,0,1-.872.238c-.793-.079-.872-.317-.872-.317" transform="translate(-1552.53 -913.673)" fill="none" stroke="#4a4ad0" stroke-linecap="round" stroke-linejoin="round" stroke-miterlimit="10" stroke-width="1.5"/>
      <path id="XMLID_523_" d="M1568.933,919.032c-1.268,4.835-3.409,9.512-7.055,9.195-3.8-.317-4.835-4.2-5.39-9.591-.476-4.835,2.933-8.957,6.817-8.64C1567.189,910.392,1570.122,914.355,1568.933,919.032Z" transform="translate(-1551.336 -909.646)" fill="none" stroke="#4a4ad0" stroke-linecap="round" stroke-linejoin="round" stroke-miterlimit="10" stroke-width="1.5"/>
      <line id="XMLID_522_" y1="1.823" x2="0.159" transform="translate(11.81 18.581)" fill="none" stroke="#4a4ad0" stroke-linecap="round" stroke-linejoin="round" stroke-miterlimit="10" stroke-width="1.5"/>
      <line id="XMLID_521_" x1="0.079" y2="1.744" transform="translate(8.719 18.422)" fill="none" stroke="#4a4ad0" stroke-linecap="round" stroke-linejoin="round" stroke-miterlimit="10" stroke-width="1.5"/>
      <path id="XMLID_520_" d="M1550,940.266c1.031-1.665,1.427-4.6,3.329-4.835,1.11-.159,2.536-.317,3.646-.555a3.857,3.857,0,0,0,1.348-.476s.634,1.664,1.9,1.744c1.11.079,1.982-1.506,1.982-1.506a4.154,4.154,0,0,0,1.506.872c1.03.317,2.3.793,3.25,1.03,1.823.555,2.774,4.042,3.488,5.866" transform="translate(-1550 -914.71)" fill="none" stroke="#4a4ad0" stroke-linecap="round" stroke-linejoin="round" stroke-miterlimit="10" stroke-width="1.5"/>
      <path id="XMLID_519_" d="M1558.8,935.1" transform="translate(-1551.825 -914.855)" fill="none" stroke="#4a4ad0" stroke-linecap="round" stroke-linejoin="round" stroke-miterlimit="10" stroke-width="1.5"/>
      <path id="XMLID_518_" d="M1566.288,927.9c.634.951,1.347,0,2.378-.079,1.585-.079,4.36,2.616,4.835,1.11.4-1.11.4-5.39.238-8.244-.159-3.408-.317-5.865-2.457-8.481-1.744-2.061-8.64-4.518-7.609-.476.634,2.536,4.994,3.8,6.341,5.152,0,0-.476,4.28-.872,6.1a15.4,15.4,0,0,1-2.616,4.994" transform="translate(-1552.813 -909.559)" fill="#fff" stroke="#4a4ad0" stroke-linecap="round" stroke-linejoin="round" stroke-miterlimit="10" stroke-width="1.5"/>
      <path id="XMLID_517_" d="M1557.358,927.008a13.218,13.218,0,0,1-1.031-9.432c.476-2.3,2.061-3.963,3.567-5.786.793-.951,1.348-2.219-.079-1.9-3.725.951-4.994,2.853-6.817,6.579-1.744,3.408-2.14,6.579-2.3,10.384,1.585.555,4.914,1.506,6.42.634" transform="translate(-1550.145 -909.616)" fill="#fff" stroke="#4a4ad0" stroke-linecap="round" stroke-linejoin="round" stroke-miterlimit="10" stroke-width="1.5"/>
    </g>
    <line id="XMLID_514_" x2="20.371" y2="1.823" transform="translate(889.074 1286.019)" fill="none" stroke="#4a4ad0" stroke-linecap="round" stroke-linejoin="round" stroke-miterlimit="10" stroke-width="1.5"/>
    <line id="XMLID_513_" x2="20.371" y2="1.744" transform="translate(888.519 1289.427)" fill="none" stroke="#4a4ad0" stroke-linecap="round" stroke-linejoin="round" stroke-miterlimit="10" stroke-width="1.5"/>
    <path id="XMLID_512_" d="M1519.9,987.112l-3.884,4.042a1.016,1.016,0,0,0,.634,1.744l17.676,1.585a1.155,1.155,0,0,0,1.03-.555l2.14-4.042a1.044,1.044,0,0,0-.793-1.506l-16.011-1.585A.873.873,0,0,0,1519.9,987.112Z" transform="translate(-668.558 328.948)" fill="none" stroke="#4a4ad0" stroke-linecap="round" stroke-linejoin="round" stroke-miterlimit="10" stroke-width="1.5"/>
    <path id="XMLID_511_" d="M1622.2,882.228a13.572,13.572,0,0,1,20.529-4.122" transform="translate(-690.64 352.111)" fill="none" stroke="#d4d4f4" stroke-linecap="round" stroke-linejoin="round" stroke-miterlimit="10" stroke-width="1.5"/>
    <path id="XMLID_510_" d="M1614.7,876.945a20.225,20.225,0,0,1,32.419-4.835" transform="translate(-689.085 353.985)" fill="none" stroke="#d4d4f4" stroke-linecap="round" stroke-linejoin="round" stroke-miterlimit="10" stroke-width="1.5"/>
    <g id="XMLID_488_" transform="translate(757.266 1201.993)">
      <rect id="XMLID_509_" width="43.675" height="30.358" transform="translate(0 15.749) rotate(-21.137)" fill="#f9ef2f" stroke="#4a4ad0" stroke-linecap="round" stroke-linejoin="round" stroke-miterlimit="10" stroke-width="1.5"/>
      <path id="XMLID_508_" d="M1403.1,860.708l26.633,8.481L1441.86,844.3" transform="translate(-1402.474 -843.502)" fill="#f9ef2f" stroke="#4a4ad0" stroke-linecap="round" stroke-linejoin="round" stroke-miterlimit="10" stroke-width="1.5"/>
      <line id="XMLID_501_" y1="20.53" x2="6.896" transform="translate(11.327 22.675)" fill="#f9ef2f" stroke="#4a4ad0" stroke-linecap="round" stroke-linejoin="round" stroke-miterlimit="10" stroke-width="1.5"/>
      <line id="XMLID_498_" x1="19.023" y1="11.573" transform="translate(31.539 16.968)" fill="#f9ef2f" stroke="#4a4ad0" stroke-linecap="round" stroke-linejoin="round" stroke-miterlimit="10" stroke-width="1.5"/>
      <line id="XMLID_493_" x2="16.725" y2="5.786" transform="translate(8.552 15.145)" fill="#f9ef2f" stroke="#4a4ad0" stroke-linecap="round" stroke-linejoin="round" stroke-miterlimit="10" stroke-width="1.5"/>
      <line id="XMLID_490_" x2="7.768" y2="1.823" transform="translate(15.686 14.432)" fill="#f9ef2f" stroke="#4a4ad0" stroke-linecap="round" stroke-linejoin="round" stroke-miterlimit="10" stroke-width="1.5"/>
    </g>
    <g id="XMLID_471_" transform="translate(707.4 1269.373)">
      <circle id="XMLID_487_" cx="30.596" cy="30.596" r="30.596" transform="translate(0 0)" fill="none" stroke="#4a4ad0" stroke-linecap="round" stroke-linejoin="round" stroke-miterlimit="10" stroke-width="1.5"/>
      <path id="XMLID_485_" d="M1379.99,974.959a4.125,4.125,0,0,1-2.774,1.189c-2.14-.079-2.616-1.348-2.616-1.348" transform="translate(-1346.699 -937.942)" fill="none" stroke="#4a4ad0" stroke-linecap="round" stroke-linejoin="round" stroke-miterlimit="10" stroke-width="1.5"/>
      <path id="XMLID_482_" d="M1391.172,962.8a1.831,1.831,0,0,1,1.427,2.536,1.853,1.853,0,0,1-2.3,1.189" transform="translate(-1349.954 -935.454)" fill="none" stroke="#4a4ad0" stroke-linecap="round" stroke-linejoin="round" stroke-miterlimit="10" stroke-width="1.5"/>
      <path id="XMLID_480_" d="M1364.3,962.2a1.831,1.831,0,0,0-1.427,2.537,1.853,1.853,0,0,0,2.3,1.189" transform="translate(-1344.241 -935.329)" fill="none" stroke="#4a4ad0" stroke-linecap="round" stroke-linejoin="round" stroke-miterlimit="10" stroke-width="1.5"/>
      <path id="XMLID_477_" d="M1386.025,957.968c-1.427,8.164-4.359,16.17-10.542,16.17-6.42,0-8.561-6.42-10.146-15.219-1.427-8.006,3.646-15.219,10.146-15.219C1382.061,943.779,1387.372,950.041,1386.025,957.968Z" transform="translate(-1344.728 -931.493)" fill="none" stroke="#4a4ad0" stroke-linecap="round" stroke-linejoin="round" stroke-miterlimit="10" stroke-width="1.5"/>
      <path id="XMLID_475_" d="M1364.23,957.655c.238.317,1.03-.872,1.268-1.11.872-.951.793-4.518,1.585-4.756.872-.238,1.268.159,3.884.634a13.764,13.764,0,0,0,6.421-.476c2.219-.872,2.854-2.219,3.884-2.14s.951-.4,2.061,1.506,2.3,2.537,2.378,3.646a17.006,17.006,0,0,1-.159,2.854h1.189a8.173,8.173,0,0,0-4.835-11.969c-2.3-.793-4.6-5.231-8.4-3.725-2.219.872-3.012,1.585-4.6,1.506-1.268-.079-4.835,1.03-5.231,3.171-.238,1.03-.317,3.884-.713,4.6C1361.535,953.85,1363.358,956.545,1364.23,957.655Z" transform="translate(-1344.176 -931.101)" fill="#fff" stroke="#4a4ad0" stroke-linecap="round" stroke-linejoin="round" stroke-miterlimit="10" stroke-width="1.5"/>
      <line id="XMLID_474_" y1="3.171" transform="translate(33.133 42.407)" fill="none" stroke="#4a4ad0" stroke-linecap="round" stroke-linejoin="round" stroke-miterlimit="10" stroke-width="1.5"/>
      <line id="XMLID_473_" y2="2.933" transform="translate(27.98 42.565)" fill="none" stroke="#4a4ad0" stroke-linecap="round" stroke-linejoin="round" stroke-miterlimit="10" stroke-width="1.5"/>
      <path id="XMLID_472_" d="M1353.3,994.132c1.427-2.933,5.073-6.341,8.164-6.975,1.744-.317,4.122-.951,5.945-1.347a5.978,5.978,0,0,0,2.22-1.03s1.268,2.616,3.329,2.616c1.9,0,3.012-2.695,3.012-2.695a7.763,7.763,0,0,0,2.616,1.189c1.744.4,3.884.951,5.548,1.268,3.171.634,7.292,3.329,8.719,6.183" transform="translate(-1342.282 -939.995)" fill="none" stroke="#4a4ad0" stroke-linecap="round" stroke-linejoin="round" stroke-miterlimit="10" stroke-width="1.5"/>
    </g>
    <path id="XMLID_469_" d="M1423.262,928.908c-.158,4.756.714,7.609,4.835,9.829.872.476-22.036,19.658-21.8,19.9l28.3-16.8,17.359,1.585c7.134.317,14.109-6.024,14.347-12.841l.159-3.646c.238-6.737-6.262-10.859-13.475-11.1l-16.249-.634c-7.134-.317-13.158,3.25-13.4,10.067Z" transform="translate(-645.872 343.795)" fill="#d4d4f4" stroke="#4a4ad0" stroke-linecap="round" stroke-linejoin="round" stroke-miterlimit="10" stroke-width="1.5"/>
    <path id="XMLID_466_" d="M1444.2,929.773l3.488,6.658,15.774-11.731" transform="translate(-653.731 341.82)" fill="none" stroke="#4a4ad0" stroke-linecap="round" stroke-linejoin="round" stroke-miterlimit="10" stroke-width="1.5"/>
    <path id="XMLID_464_" d="M1454.3,954.249c7.689,0,15.932,1.9,22.59-5.549" transform="translate(-655.825 336.843)" fill="none" stroke="#d4d4f4" stroke-linecap="round" stroke-linejoin="round" stroke-miterlimit="10" stroke-width="1.5"/>
    <path id="XMLID_461_" d="M1463.1,962.628A19.079,19.079,0,0,0,1478.715,957" transform="translate(-657.65 335.122)" fill="none" stroke="#d4d4f4" stroke-linecap="round" stroke-linejoin="round" stroke-miterlimit="10" stroke-width="1.5"/>
    <path id="XMLID_460_" d="M1393.441,877.5c-6.341,2.061-25.127,10.542-19.42,34.956" transform="translate(-638.958 351.607)" fill="none" stroke="#4a4ad0" stroke-linecap="round" stroke-linejoin="round" stroke-miterlimit="10" stroke-width="1.5"/>
    <path id="XMLID_459_" d="M1465.3,853.7c5.469-1.506,16.249,2.219,18.944,7.213s1.982,10.859-1.268,16.249a4.362,4.362,0,0,1-3.171,2.378c-1.506.159-2.774-1.11-3.329-2.457-4.914-11.1,2.457-17.6,8.085-23.145,15.377-15.06,42.486-18.786,72.289,21.639" transform="translate(-658.106 358.679)" fill="none" stroke="#4a4ad0" stroke-linecap="round" stroke-linejoin="round" stroke-miterlimit="10" stroke-width="1.5"/>
    <path id="XMLID_458_" d="M1620.977,962.371l-32.5-23.462a1.133,1.133,0,0,1-.238-1.585l35.431-49.144a1.133,1.133,0,0,1,1.585-.238l32.5,23.462a1.133,1.133,0,0,1,.238,1.585l-35.431,49.144A1.225,1.225,0,0,1,1620.977,962.371Z" transform="translate(-683.552 349.489)" fill="#fff" stroke="#4a4ad0" stroke-linecap="round" stroke-linejoin="round" stroke-miterlimit="10" stroke-width="1.471"/>
    <path id="XMLID_457_" d="M1622.419,957.7l-27.108-19.578a1.672,1.672,0,0,1-.4-2.378l28.852-40.029a1.673,1.673,0,0,1,2.378-.4l27.108,19.578a1.672,1.672,0,0,1,.4,2.378L1624.8,957.3A1.683,1.683,0,0,1,1622.419,957.7Z" transform="translate(-684.914 347.981)" fill="none" stroke="#4a4ad0" stroke-linecap="round" stroke-linejoin="round" stroke-miterlimit="10" stroke-width="1.492"/>
    <line id="XMLID_456_" x2="5.469" y2="3.805" transform="translate(954.071 1249.319)" fill="none" stroke="#4a4ad0" stroke-linecap="round" stroke-linejoin="round" stroke-miterlimit="10" stroke-width="1.5"/>
  </g>
</svg>
