<svg xmlns="http://www.w3.org/2000/svg" width="240.368" height="123.151" viewBox="0 0 240.368 123.151">
  <g id="Group_496" data-name="Group 496" transform="translate(-1461.224 -1004.777)">
    <g id="XMLID_832_" transform="translate(1624.734 1022.425)">
      <rect id="XMLID_837_" width="69.185" height="48.408" transform="translate(0 60.516) rotate(-61.008)" fill="#fff" stroke="#4a4ad0" stroke-linecap="round" stroke-linejoin="round" stroke-miterlimit="10" stroke-width="1.446"/>
      <rect id="XMLID_836_" width="58.075" height="41.049" transform="translate(6.152 57.612) rotate(-61.008)" fill="#fac2ed" stroke="#4a4ad0" stroke-linecap="round" stroke-linejoin="round" stroke-miterlimit="10" stroke-width="1.446"/>
      <line id="XMLID_835_" x2="6.421" y2="3.391" transform="translate(51.088 12.725)" fill="#fff" stroke="#4a4ad0" stroke-linecap="round" stroke-linejoin="round" stroke-miterlimit="10" stroke-width="1.446"/>
      <path id="XMLID_834_" d="M3476.412,427.9c-1.948,4.256-4.906,8.008-7.287,12.048-2.309,3.968-4.689,9.162-6.926,13.274" transform="translate(-3413.421 -400.025)" fill="none" stroke="#fff" stroke-linecap="round" stroke-linejoin="round" stroke-miterlimit="10" stroke-width="1.446"/>
      <path id="XMLID_833_" d="M3461.854,443.6c-4.185,6.565-6.854,14.212-11.254,20.633" transform="translate(-3410.189 -404.398)" fill="none" stroke="#fff" stroke-linecap="round" stroke-linejoin="round" stroke-miterlimit="10" stroke-width="1.446"/>
    </g>
    <path id="XMLID_679_" d="M3236.746,495.1s-9.595,16.593-6.926,19.623c2.885,3.174,21.065,3.174,21.065,3.174s78.274.433,82.748.433,50.066.072,50.066.072l.505,5.194H3213.3v-4.473l17.819-24.023Z" transform="translate(-1719.35 603.68)" fill="#ebe8f3"/>
    <path id="XMLID_678_" d="M3231.211,494.1s-18.18,23.013-18.541,23.879c-.865,2.164.217,5.266.217,5.266h170.906s.361-4.112-.505-5.194c-.793-1.082-19.479-23.951-19.479-23.951" transform="translate(-1719.081 603.959)" fill="none" stroke="#4a4ad0" stroke-linecap="round" stroke-linejoin="round" stroke-miterlimit="10" stroke-width="1.446"/>
    <path id="XMLID_677_" d="M3341.133,516.847a1.464,1.464,0,0,1-1.515,1.443h-32.1a1.464,1.464,0,0,1-1.515-1.443l3.463-6.2a2.448,2.448,0,0,1,2.092-1.443h23.519a2.526,2.526,0,0,1,2.165,1.443Z" transform="translate(-1745.174 599.752)" fill="#fff" stroke="#4a4ad0" stroke-linecap="round" stroke-linejoin="round" stroke-miterlimit="10" stroke-width="1.446"/>
    <path id="XMLID_614_" d="M3372.246,456.7a1.756,1.756,0,0,1-1.731,1.731H3239.431a1.755,1.755,0,0,1-1.731-1.731V367.531a1.755,1.755,0,0,1,1.731-1.731h131.083a1.755,1.755,0,0,1,1.731,1.731Z" transform="translate(-1726.147 639.7)" fill="#fff" stroke="#4a4ad0" stroke-linecap="round" stroke-linejoin="round" stroke-miterlimit="10" stroke-width="1.446"/>
    <path id="XMLID_613_" d="M3370.459,454.957a1.755,1.755,0,0,1-1.731,1.731h-123.8a1.755,1.755,0,0,1-1.731-1.731V372.931a1.755,1.755,0,0,1,1.731-1.731h123.8a1.755,1.755,0,0,1,1.731,1.731Z" transform="translate(-1727.679 638.196)" fill="#ededfa"/>
    <path id="XMLID_612_" d="M3243.2,455.208,3370.1,372.1l.361,83.108-1.731,1.731-124.879-.216Z" transform="translate(-1727.68 637.945)" fill="#a6a6e8" opacity="0.28"/>
    <path id="XMLID_611_" d="M3369.771,454.957a1.756,1.756,0,0,1-1.731,1.731H3244.532a1.755,1.755,0,0,1-1.731-1.731V372.931a1.756,1.756,0,0,1,1.731-1.731H3368.04a1.756,1.756,0,0,1,1.731,1.731Z" transform="translate(-1727.568 638.196)" fill="none" stroke="#4a4ad0" stroke-linecap="round" stroke-linejoin="round" stroke-miterlimit="10" stroke-width="1.446"/>
    <line id="XMLID_610_" x1="29.073" y2="18.468" transform="translate(1605.987 1021.083)" fill="#fff" stroke="#fff" stroke-linecap="round" stroke-linejoin="round" stroke-miterlimit="10" stroke-width="1.446" opacity="0.83"/>
    <line id="XMLID_609_" x1="9.09" y2="6.06" transform="translate(1625.971 1028.441)" fill="#fff" stroke="#fff" stroke-linecap="round" stroke-linejoin="round" stroke-miterlimit="10" stroke-width="1.446" opacity="0.83"/>
    <g id="XMLID_597_" transform="translate(1461.968 1047.271)">
      <g id="XMLID_601_" transform="translate(20.263 5.667)">
        <path id="XMLID_607_" d="M3220.174,491.17a.6.6,0,0,0,.865.216l24.312-13.418a.6.6,0,0,0,.217-.866l-23.014-41.626a.6.6,0,0,0-.865-.216l-24.312,13.419a.6.6,0,0,0-.217.866Z" transform="translate(-3197.056 -432.558)" fill="#cbc0de" stroke="#cbc0de" stroke-linecap="round" stroke-linejoin="round" stroke-miterlimit="10" stroke-width="1.446" opacity="0.73"/>
        <path id="XMLID_603_" d="M3221.573,487.57a.6.6,0,0,0,.865.216l24.312-13.419a.6.6,0,0,0,.217-.866l-23.013-41.626a.6.6,0,0,0-.865-.216l-24.312,13.419a.6.6,0,0,0-.217.866Z" transform="translate(-3197.446 -431.556)" fill="#fff" stroke="#4a4ad0" stroke-linecap="round" stroke-linejoin="round" stroke-miterlimit="10" stroke-width="1.446"/>
        <line id="XMLID_602_" x1="2.669" y2="1.371" transform="translate(13.378 8.906)" fill="none" stroke="#4a4ad0" stroke-linecap="round" stroke-linejoin="round" stroke-miterlimit="10" stroke-width="1.446"/>
      </g>
      <path id="XMLID_600_" d="M3193.905,441.8c-4.978.433-8.224,7.864-4.761,11.687a.549.549,0,0,1-.577-.505" transform="translate(-3174.187 -428.742)" fill="none" stroke="#4a4ad0" stroke-linecap="round" stroke-linejoin="round" stroke-miterlimit="10" stroke-width="1.446"/>
      <path id="XMLID_599_" d="M3188.763,430.5c-4.329,1.226-7.07,4.473-8.8,8.441-1.154,2.669-2.38,10.1-1.731,10.316" transform="translate(-3171.498 -425.594)" fill="none" stroke="#4a4ad0" stroke-linecap="round" stroke-linejoin="round" stroke-miterlimit="10" stroke-width="1.446"/>
      <path id="XMLID_598_" d="M3178.514,423.7c-5.988,2.236-10.677,9.451-9.306,16.016" transform="translate(-3168.968 -423.7)" fill="none" stroke="#4a4ad0" stroke-linecap="round" stroke-linejoin="round" stroke-miterlimit="10" stroke-width="1.446"/>
    </g>
    <line id="XMLID_596_" x2="6.637" y2="11.687" transform="translate(1493.806 1071.077)" fill="none" stroke="#fff" stroke-linecap="round" stroke-linejoin="round" stroke-miterlimit="10" stroke-width="1.446"/>
    <path id="Path_627" data-name="Path 627" d="M3324.3,453.9a88.469,88.469,0,0,1,46.388,4.256l6.2-66.948c-14.5-5.988-30.155-6.349-46.388-4.256" transform="translate(-1750.272 634.13)" fill="#fff" stroke="#4a4ad0" stroke-linecap="round" stroke-linejoin="round" stroke-miterlimit="10" stroke-width="1.446"/>
    <path id="Path_628" data-name="Path 628" d="M3305.988,452.143a87.555,87.555,0,0,0-46.388-4.256l6.2-66.948c15.294-3.246,30.8-.721,46.388,4.256Z" transform="translate(-1732.248 635.888)" fill="#fff" stroke="#4a4ad0" stroke-linecap="round" stroke-linejoin="round" stroke-miterlimit="10" stroke-width="1.446"/>
    <path id="Path_629" data-name="Path 629" d="M3304.907,411.944a116.919,116.919,0,0,0-29.507-2.886l1.876-18.9a78.388,78.388,0,0,1,29.506,2.886Z" transform="translate(-1736.65 633.018)" fill="#ededfa" stroke="#4a4ad0" stroke-linecap="round" stroke-linejoin="round" stroke-miterlimit="10" stroke-width="1.446"/>
    <path id="Path_630" data-name="Path 630" d="M3290.566,396.7l-.865,9.018,7.575-4.329Z" transform="translate(-1740.634 631.092)" fill="#f87b00" stroke="#4a4ad0" stroke-linecap="round" stroke-linejoin="round" stroke-miterlimit="10" stroke-width="1.446"/>
    <line id="Line_23" data-name="Line 23" y1="13.13" x2="24.889" transform="translate(1486.231 1057.948)" fill="#fff" stroke="#4a4ad0" stroke-linecap="round" stroke-linejoin="round" stroke-miterlimit="10" stroke-width="1.446"/>
    <line id="Line_24" data-name="Line 24" y1="13.058" x2="24.889" transform="translate(1504.483 1091.782)" fill="#fff" stroke="#4a4ad0" stroke-linecap="round" stroke-linejoin="round" stroke-miterlimit="10" stroke-width="1.446"/>
    <ellipse id="Ellipse_34" data-name="Ellipse 34" cx="9.956" cy="9.956" rx="9.956" ry="9.956" transform="translate(1596.537 1061.987)" fill="#2dab66" stroke="#4a4ad0" stroke-linecap="round" stroke-linejoin="round" stroke-miterlimit="10" stroke-width="1.446"/>
    <path id="Path_631" data-name="Path 631" d="M3363.3,455.786l.36,5.194,8.874-8.08" transform="translate(-1761.136 615.436)" fill="#2dab66" stroke="#fff" stroke-linecap="round" stroke-linejoin="round" stroke-miterlimit="10" stroke-width="1.446"/>
  </g>
</svg>
