<svg xmlns="http://www.w3.org/2000/svg" width="208.149" height="128.025" viewBox="0 0 208.149 128.025">
  <g id="Group_473" data-name="Group 473" transform="translate(-784.985 -409.163)">
    <path id="Path_799" data-name="Path 799" d="M883.036,520.256l-4.905.771,1.4,4.7.35,5.045-.28,4.415-1.472,3.364L877.5,539.6l2.593.35,109.526-16.538,2.593-.49.911-1.892.7-4.625-.21-5.746-.841-4.345-.42-.911L889.062,522.708H886.4Z" transform="translate(-27.472 -28.597)" fill="#f48bd5"/>
    <path id="Path_800" data-name="Path 800" d="M870.731,513.1l-1.331,4.2,6.307,6.026,4.905-.771Z" transform="translate(-25.048 -30.901)" fill="#fac2ed"/>
    <path id="Path_801" data-name="Path 801" d="M878.773,482.959l-2.873,9.81,10.862,11,1.051,1.612.07,2.312-.35,2.453-.771,2.032-1.331.911,2.242.7,4.345-.561,110.227-18.71,3.294-.911,1.752-1.682.21-4.765-.561-3.153-2.453-2.943-6.1-5.256-9.11-.911h-8.549l-7.077,1.051-6.237,1.962-5.816,2.242-9.67,6.307-8.059-1.191-11.212-.35-9.04.981-10.581,2.873-7.708,3.153-5.956,3.083-8.409,6.026Z" transform="translate(-26.993 -19.469)" fill="#d4d4f4"/>
    <path id="Path_802" data-name="Path 802" d="M913.4,536.2l4.274,5.045,111.348-19.13L1006.108,504.6l-3.293.07,1.4,4.485.14,6.517-.21,4.2-1.191,2.8-4.415.561Z" transform="translate(-38.215 -28.357)" fill="#faa14a"/>
    <path id="Path_803" data-name="Path 803" d="M1020.514,535.3l6.937,5.886L913.3,560.877l-9.6-14.015,3.153-.49,7.708,10.511,106.513-17.729Z" transform="translate(-35.312 -37.545)" fill="#faa14a"/>
    <path id="Path_804" data-name="Path 804" d="M861.414,539.6,857.7,551.022,869.472,565.6l29.431-4.905-8.97-12.964-16.958,2.593-3.153-1.892Z" transform="translate(-21.546 -38.831)" fill="#d4d4f4"/>
    <path id="XMLID_82_" d="M924.8,421.655l41.484,45.478c16.537-13.945,36.929-13.594,58.652-8.619l-45.2-45.829C962.22,407.079,944.211,409.6,924.8,421.655Z" transform="translate(-41.627 0)" fill="none" stroke="#4a4ad0" stroke-linecap="round" stroke-linejoin="round" stroke-miterlimit="10" stroke-width="1.43"/>
    <path id="XMLID_65_" d="M953.037,484.717a70.041,70.041,0,0,0-60.684,14.435L880.3,481l3.714-12.4" transform="translate(-28.31 -17.584)" fill="none" stroke="#4a4ad0" stroke-linecap="round" stroke-linejoin="round" stroke-miterlimit="10" stroke-width="1.43"/>
    <path id="XMLID_64_" d="M852,431.389c18.079-10.371,34.617-11.983,51.154-6.657" transform="translate(-19.841 -3.567)" fill="none" stroke="#4a4ad0" stroke-linecap="round" stroke-linejoin="round" stroke-miterlimit="10" stroke-width="1.43"/>
    <path id="XMLID_63_" d="M895.8,501.162s14.926-11.843,29.291-14.225c18.219-3.013,31.744,2.943,31.744,2.943" transform="translate(-32.948 -22.817)" fill="none" stroke="#4a4ad0" stroke-linecap="round" stroke-linejoin="round" stroke-miterlimit="10" stroke-width="1.43"/>
    <path id="XMLID_62_" d="M983.9,483.9a43.077,43.077,0,0,1,18.359-10.932c18.64-5.606,36.929.28,36.929.28" transform="translate(-59.313 -18.166)" fill="none" stroke="#4a4ad0" stroke-linecap="round" stroke-linejoin="round" stroke-miterlimit="10" stroke-width="1.43"/>
    <path id="XMLID_61_" d="M996.693,476.1l7.708,6.587a5.823,5.823,0,0,1,1.752,3.924l.14,3.854a3.731,3.731,0,0,1-3.153,3.854L887.1,514.01c-2.453.07-3.153.07-5.886-2.8l-9.81-9.6" transform="translate(-25.646 -19.829)" fill="none" stroke="#4a4ad0" stroke-linecap="round" stroke-linejoin="round" stroke-miterlimit="10" stroke-width="1.43"/>
    <path id="XMLID_60_" d="M988.212,505.8c1.752,4.975,1.682,10.231.771,15.627a2.532,2.532,0,0,1-2.1,2.032L875.6,540c-2.172.49-4.345-1.822-5.886-3.223l-6.517-6.937" transform="translate(-23.192 -28.717)" fill="none" stroke="#4a4ad0" stroke-linecap="round" stroke-linejoin="round" stroke-miterlimit="10" stroke-width="1.43"/>
    <path id="XMLID_59_" d="M904.4,547.083l9.53,13.454,114.011-19.411-7.147-6.026" transform="translate(-35.522 -37.485)" fill="none" stroke="#4a4ad0" stroke-linecap="round" stroke-linejoin="round" stroke-miterlimit="10" stroke-width="1.43"/>
    <line id="XMLID_58_" x2="22.284" y2="17.168" transform="translate(968.594 476.663)" fill="#d4d4f4" stroke="#4a4ad0" stroke-linecap="round" stroke-linejoin="round" stroke-miterlimit="10" stroke-width="1.43"/>
    <path id="XMLID_57_" d="M855.494,454.177l-14.505-.631-31.6-32.795L785.7,492.3l29.221,46.95,13.8-1.191,26.909-84.089L821.158,419.7l-2.172,4.064" transform="translate(0 -2.95)" fill="#ededfa" stroke="#4a4ad0" stroke-linecap="round" stroke-linejoin="round" stroke-miterlimit="10" stroke-width="1.43"/>
    <path id="XMLID_56_" d="M994.057,549.2c.911,2.453.841,4.415,0,5.956L868.835,576.879,855.1,559.851" transform="translate(-20.768 -41.704)" fill="none" stroke="#4a4ad0" stroke-linecap="round" stroke-linejoin="round" stroke-miterlimit="10" stroke-width="1.43"/>
    <path id="XMLID_55_" d="M884.669,520.281c2.663,1.962,4.345-6.447,2.242-8.829C884.669,508.929,875.7,500.1,875.7,500.1" transform="translate(-26.933 -27.011)" fill="none" stroke="#4a4ad0" stroke-linecap="round" stroke-linejoin="round" stroke-miterlimit="10" stroke-width="1.43"/>
    <line id="XMLID_54_" y1="18.359" x2="107.634" transform="translate(865.865 467.413)" fill="none" stroke="#4a4ad0" stroke-linecap="round" stroke-linejoin="round" stroke-miterlimit="10" stroke-width="1.43"/>
    <path id="XMLID_53_" d="M875.115,543.316c3.223-1.682,3.434-12.473.771-18.359L870,519" transform="translate(-25.227 -32.667)" fill="none" stroke="#4a4ad0" stroke-linecap="round" stroke-linejoin="round" stroke-miterlimit="10" stroke-width="1.43"/>
    <line id="XMLID_52_" y1="0.911" x2="4.975" transform="translate(850.659 491.379)" fill="none" stroke="#4a4ad0" stroke-linecap="round" stroke-linejoin="round" stroke-miterlimit="10" stroke-width="1.43"/>
    <path id="XMLID_51_" d="M1029.182,529.7,917.9,548.76l-4.2-4.905" transform="translate(-38.305 -35.869)" fill="none" stroke="#4a4ad0" stroke-linecap="round" stroke-linejoin="round" stroke-miterlimit="10" stroke-width="1.43"/>
    <path id="XMLID_50_" d="M1022.3,531.1a7.778,7.778,0,0,0-.561,4.064,4.333,4.333,0,0,0,1.191,2.733L916.138,555.7,908.5,545.325" transform="translate(-36.749 -36.288)" fill="none" stroke="#4a4ad0" stroke-linecap="round" stroke-linejoin="round" stroke-miterlimit="10" stroke-width="1.43"/>
    <path id="XMLID_34_" d="M919.5,563.457a6.548,6.548,0,0,0,1.822-3.924,26.671,26.671,0,0,0,0-2.733" transform="translate(-40.041 -43.979)" fill="none" stroke="#4a4ad0" stroke-linecap="round" stroke-linejoin="round" stroke-miterlimit="10" stroke-width="1.43"/>
    <path id="XMLID_33_" d="M899.1,565.64l-29.431,4.695L857.9,555.9" transform="translate(-21.606 -43.709)" fill="none" stroke="#4a4ad0" stroke-linecap="round" stroke-linejoin="round" stroke-miterlimit="10" stroke-width="1.43"/>
    <path id="XMLID_32_" d="M874.7,576.5c.7,3.293.7,5.886,0,7.708" transform="translate(-26.634 -49.874)" fill="none" stroke="#4a4ad0" stroke-linecap="round" stroke-linejoin="round" stroke-miterlimit="10" stroke-width="1.43"/>
    <path id="XMLID_31_" d="M822.4,423.8s3.994,2.383,6.937,1.822c3.013-.631,2.873-1.542,2.873-1.542L861.992,454.7" transform="translate(-10.983 -4.177)" fill="none" stroke="#4a4ad0" stroke-linecap="round" stroke-linejoin="round" stroke-miterlimit="10" stroke-width="1.43"/>
    <line id="XMLID_30_" x1="26.068" y2="85.701" transform="translate(814.921 450.595)" fill="none" stroke="#4a4ad0" stroke-linecap="round" stroke-linejoin="round" stroke-miterlimit="10" stroke-width="1.43"/>
    <path id="XMLID_29_" d="M937,425.372l32.725,37.28s7.638-6.937,22-11.142c12.263-3.574,24.946.631,24.946.631l-33.986-33.986s-11.772-3.854-22.844-1.892A62.72,62.72,0,0,0,937,425.372Z" transform="translate(-45.278 -1.755)" fill="none" stroke="#4a4ad0" stroke-linecap="round" stroke-linejoin="round" stroke-miterlimit="10" stroke-width="1.43"/>
    <line id="XMLID_28_" x2="32.024" y2="36.509" transform="translate(896.978 420.744)" fill="none" stroke="#4a4ad0" stroke-linecap="round" stroke-linejoin="round" stroke-miterlimit="10" stroke-width="1.43"/>
    <line id="XMLID_27_" x2="32.234" y2="33.495" transform="translate(932.786 415.418)" fill="none" stroke="#4a4ad0" stroke-linecap="round" stroke-linejoin="round" stroke-miterlimit="10" stroke-width="1.43"/>
    <line id="XMLID_26_" x2="32.234" y2="33.776" transform="translate(927.74 414.437)" fill="none" stroke="#4a4ad0" stroke-linecap="round" stroke-linejoin="round" stroke-miterlimit="10" stroke-width="1.43"/>
    <line id="XMLID_25_" x2="31.674" y2="35.738" transform="translate(900.131 419.552)" fill="none" stroke="#4a4ad0" stroke-linecap="round" stroke-linejoin="round" stroke-miterlimit="10" stroke-width="1.43"/>
    <path id="XMLID_24_" d="M976.1,468.19a100.062,100.062,0,0,1,18.78-9.951c13.1-5.045,26.838-.841,26.838-.841" transform="translate(-56.979 -13.741)" fill="none" stroke="#4a4ad0" stroke-linecap="round" stroke-linejoin="round" stroke-miterlimit="10" stroke-width="1.43"/>
    <path id="XMLID_23_" d="M967.9,458.73a150.319,150.319,0,0,1,18.85-9.04c13.1-5.045,26.138-1.191,26.138-1.191" transform="translate(-54.525 -11.147)" fill="none" stroke="#4a4ad0" stroke-linecap="round" stroke-linejoin="round" stroke-miterlimit="10" stroke-width="1.43"/>
    <path id="XMLID_22_" d="M959.6,450.445a145.283,145.283,0,0,1,19.621-8.339,49.31,49.31,0,0,1,25.507-1.191" transform="translate(-52.041 -8.959)" fill="none" stroke="#4a4ad0" stroke-linecap="round" stroke-linejoin="round" stroke-miterlimit="10" stroke-width="1.43"/>
    <path id="XMLID_21_" d="M952.2,442.314a75.887,75.887,0,0,1,19.551-8.269,59.317,59.317,0,0,1,26.068-.14" transform="translate(-49.826 -6.785)" fill="none" stroke="#4a4ad0" stroke-linecap="round" stroke-linejoin="round" stroke-miterlimit="10" stroke-width="1.43"/>
    <path id="XMLID_20_" d="M944.9,433.094a84.419,84.419,0,0,1,19.34-8.2,46.831,46.831,0,0,1,26.348,1.051" transform="translate(-47.642 -4.081)" fill="none" stroke="#4a4ad0" stroke-linecap="round" stroke-linejoin="round" stroke-miterlimit="10" stroke-width="1.43"/>
    <path id="XMLID_19_" d="M874.5,437.771c9.81-4.905,20.742-6.237,32.655-4.485" transform="translate(-26.574 -6.796)" fill="none" stroke="#4a4ad0" stroke-linecap="round" stroke-linejoin="round" stroke-miterlimit="10" stroke-width="1.43"/>
    <path id="XMLID_18_" d="M877.3,442.471c9.81-4.905,20.742-6.237,32.655-4.485" transform="translate(-27.412 -8.202)" fill="none" stroke="#4a4ad0" stroke-linecap="round" stroke-linejoin="round" stroke-miterlimit="10" stroke-width="1.43"/>
    <path id="XMLID_17_" d="M880.7,447.559c9.74-5.115,20.6-6.657,32.515-5.185" transform="translate(-28.429 -9.577)" fill="none" stroke="#4a4ad0" stroke-linecap="round" stroke-linejoin="round" stroke-miterlimit="10" stroke-width="1.43"/>
    <path id="XMLID_16_" d="M884.3,452.505c9.67-5.256,20.532-6.937,32.444-5.676" transform="translate(-29.507 -10.95)" fill="none" stroke="#4a4ad0" stroke-linecap="round" stroke-linejoin="round" stroke-miterlimit="10" stroke-width="1.43"/>
    <path id="XMLID_15_" d="M888.5,458.007c9.6-5.326,20.462-7.148,32.374-5.956" transform="translate(-30.764 -12.527)" fill="none" stroke="#4a4ad0" stroke-linecap="round" stroke-linejoin="round" stroke-miterlimit="10" stroke-width="1.43"/>
    <path id="XMLID_14_" d="M892.7,463.882c9.46-5.606,20.251-7.778,32.234-6.867" transform="translate(-32.021 -14.057)" fill="none" stroke="#4a4ad0" stroke-linecap="round" stroke-linejoin="round" stroke-miterlimit="10" stroke-width="1.43"/>
    <line id="XMLID_13_" y1="6.797" x2="40.293" transform="translate(881.281 508.266)" fill="none" stroke="#4a4ad0" stroke-linecap="round" stroke-linejoin="round" stroke-miterlimit="10" stroke-width="1.43"/>
    <line id="XMLID_12_" y1="10.161" x2="59.003" transform="translate(925.638 497.475)" fill="none" stroke="#4a4ad0" stroke-linecap="round" stroke-linejoin="round" stroke-miterlimit="10" stroke-width="1.43"/>
    <path id="XMLID_11_" d="M918.6,555.631l1.612,1.892,74-12.123" transform="translate(-39.771 -40.567)" fill="none" stroke="#4a4ad0" stroke-linecap="round" stroke-linejoin="round" stroke-miterlimit="10" stroke-width="1.43"/>
    <path id="XMLID_10_" d="M937.4,534.778a24.707,24.707,0,0,1,3.924-7.638,13.453,13.453,0,0,1,2.242,5.816c.841-2.032,1.822-4.064,2.8-5.956,1.051.981,2.523,4.064,3.5,6.307" transform="translate(-45.397 -35.061)" fill="none" stroke="#4a4ad0" stroke-linecap="round" stroke-linejoin="round" stroke-miterlimit="10" stroke-width="1.43"/>
    <path id="XMLID_9_" d="M963.4,529.372c3.434-.07,6.727-.981,10.091-1.472" transform="translate(-53.178 -35.33)" fill="none" stroke="#4a4ad0" stroke-linecap="round" stroke-linejoin="round" stroke-miterlimit="10" stroke-width="1.43"/>
    <path id="XMLID_8_" d="M985.9,524.161c1.822-1.472,3.994-3.5,4.555-3.364.841,2.523.841,4.2,0,7.778" transform="translate(-59.911 -33.202)" fill="none" stroke="#4a4ad0" stroke-linecap="round" stroke-linejoin="round" stroke-miterlimit="10" stroke-width="1.43"/>
    <line id="XMLID_7_" x2="8.619" y2="8.97" transform="translate(815.832 439.313)" fill="none" stroke="#4a4ad0" stroke-linecap="round" stroke-linejoin="round" stroke-miterlimit="10" stroke-width="1.43"/>
    <line id="XMLID_6_" x2="15.697" y2="15.486" transform="translate(809.455 441.836)" fill="none" stroke="#4a4ad0" stroke-linecap="round" stroke-linejoin="round" stroke-miterlimit="10" stroke-width="1.43"/>
    <path id="XMLID_5_" d="M821.153,476.1a3.045,3.045,0,0,1,1.612-1.331,1.629,1.629,0,0,1,1.892.631c.491.841-.14,1.822-.771,2.523-2.242,2.172-5.886,2.873-7.428,5.606a.463.463,0,0,0-.07.42c.07.14.14.14.28.28,1.682,1.472,3.294,3.644,4.835,4.975" transform="translate(-9.175 -19.406)" fill="none" stroke="#4a4ad0" stroke-linecap="round" stroke-linejoin="round" stroke-miterlimit="10" stroke-width="1.43"/>
  </g>
</svg>
