<svg xmlns="http://www.w3.org/2000/svg" xmlns:xlink="http://www.w3.org/1999/xlink" width="777" height="546.544" viewBox="0 0 777 546.544">
  <defs>
    <clipPath id="clip-path">
      <path id="Path_74" data-name="Path 74" d="M776.941-2335.178c-.092,4.917-.337,9.724-.729,14.45a205.838,205.838,0,0,1-12.054,54.989q-3.091,8.362-6.845,16.3A211.872,211.872,0,0,1,746.46-2229.2c-1.2,2-2.459,4-3.731,5.959q-2.96,4.6-6.1,9.031a288.492,288.492,0,0,1-21.913,26.962q-2.869,3.128-5.811,6.192-3.154,3.282-6.394,6.481-2.246,2.22-4.534,4.41c-9.543,9.13-19.61,17.875-29.97,26.325-4.479,3.66-8.466,6.83-12.5,9.959-.694.555-1.406,1.086-2.1,1.617-1.349,1.065-2.718,2.1-4.086,3.151-.74.552-1.443,1.106-2.174,1.659-.881.68-1.293.973-1.706,1.277-8.828,6.7-17.79,13.231-26.71,19.707q-4.36,3.127-8.68,6.234c-.993.727-1.987,1.428-3,2.1-5.794,4.047-11.5,7.651-17.285,10.94-1.911,1.1-3.822,2.146-5.755,3.19q-7.617,4.085-15.355,7.492a252.071,252.071,0,0,1-61.764,18.216c-5.681.958-11.4,1.724-17.1,2.321a344.653,344.653,0,0,1-49.3,1.445,466.165,466.165,0,0,1-54.717-5.639c-5.023-.829-9.122-1.589-13.385-2.468-49.617-10.153-119.2-34.008-175.809-38.8q-1.489-.157-2.98-.254-10.573-.765-21.614-2.193a323.406,323.406,0,0,1-52.1-10.848c-1.46-.445-2.923-.914-4.384-1.382-1.275-.4-2.549-.84-3.824-1.26-1.088-.361-2.194-.744-3.28-1.126-1.724-.617-3.188-1.15-4.649-1.705s-2.925-1.1-4.386-1.68c-2.374-.958-4.736-1.937-7.06-2.959-.956-.4-1.894-.828-2.832-1.26a190.554,190.554,0,0,1-26.814-14.855c-1.535-1.021-3.036-2.085-4.536-3.15a142.009,142.009,0,0,1-31.221-30.477,128.609,128.609,0,0,1-12.21-20.078,134.912,134.912,0,0,1-9.346-25.079c-.583-2.149-1.11-4.318-1.595-6.552C.2-2242.617-.962-2260.983.836-2281.6q1.032-12.112,3.206-24.048c1.913-10.661,6.223-22.177,12.5-33.411a142.221,142.221,0,0,1,22.661-30.177c28.512-28.729,68.639-42.658,114.047-26.176,61.315,22.263,130.736,14.164,171.1-18.929,51.552-42.268,35.322-89.957,105.182-145,69.9-55.077,177.517-50.419,231.607-11.535,59.916,43.075,98.79,114.507,112.689,191.231A223.433,223.433,0,0,1,776.941-2335.178Z" transform="translate(0.001 2600.393)" fill="none"/>
    </clipPath>
    <clipPath id="clip-path-2">
      <path id="Path_76" data-name="Path 76" d="M820.981-573q-2.246,2.22-4.534,4.411c-9.542,9.13-19.61,17.875-29.97,26.325-.185.151-.355.3-.542.449q-5.905,4.816-11.96,9.51c-.694.554-1.406,1.086-2.1,1.617-1.349,1.065-2.718,2.1-4.087,3.151-.74.552-1.443,1.107-2.174,1.659H765.6c-.15.107-.3.233-.45.342-.412.338-.825.63-1.238.935-8.828,6.7-17.79,13.232-26.71,19.707q-4.36,3.127-8.68,6.234c-.993.727-1.987,1.428-3,2.1-.056.042-.113.086-.17.126q-8.436,5.881-17.114,10.814c-1.911,1.1-3.822,2.146-5.755,3.19q-7.617,4.085-15.355,7.492c-.3.147-.6.277-.88.4h-.019a250.471,250.471,0,0,1-60.865,17.812c-5.681.958-11.4,1.724-17.1,2.321a344.662,344.662,0,0,1-49.3,1.445,466.283,466.283,0,0,1-54.718-5.639c-.355-.063-.712-.105-1.088-.191q-5.9-.958-12.3-2.277c-49.617-10.153-119.2-34.007-175.809-38.8q-1.489-.157-2.98-.254-10.573-.764-21.614-2.193a322.091,322.091,0,0,1-52.1-10.835c-1.46-.445-2.923-.914-4.384-1.382-1.275-.405-2.549-.84-3.824-1.26-1.088-.361-2.194-.744-3.28-1.126-.076-.023-.168-.065-.244-.088-1.48-.529-2.943-1.063-4.4-1.617s-2.925-1.1-4.386-1.68h-.011c-2.362-.958-4.725-1.936-7.048-2.959-.956-.4-1.894-.827-2.832-1.26-.242-.105-.487-.21-.729-.34a187.1,187.1,0,0,1-26.085-14.515c-1.535-1.021-3.036-2.086-4.536-3.15v-.023A141.408,141.408,0,0,1,145.37-573Z" transform="translate(-145.37 573)" fill="none"/>
    </clipPath>
  </defs>
  <g id="Learning_Online_Makes_Fun" data-name="Learning Online Makes Fun" transform="translate(-35.005 -203.569)">
    <g id="Group_378" data-name="Group 378" transform="translate(-14.297 203.957)">
      <g id="Group_378-2" data-name="Group 378" transform="translate(49.302)" clip-path="url(#clip-path)">
        <path id="Path_73" data-name="Path 73" d="M-5-2057.136H773.85v-548.257H-5Z" transform="translate(4.076 2604.343)" fill="#e6e2f4"/>
      </g>
      <g id="Group_379" data-name="Group 379" transform="translate(76.196 425.805)" clip-path="url(#clip-path-2)">
        <path id="Path_75" data-name="Path 75" d="M140.37-455.561H817.831V-578H140.37Z" transform="translate(-141.295 576.95)" fill="#dcd6ef"/>
      </g>
    </g>
    <g id="Chair" transform="translate(370.947 446.839)">
      <g id="Group_254" data-name="Group 254" transform="translate(27.86 1.09)">
        <path id="Path_2" data-name="Path 2" d="M938.789,871.276l5.033-165.241A22.225,22.225,0,0,0,921.616,683H762.289a22.213,22.213,0,0,0-22.205,21.427L735,867.126Z" transform="translate(-735 -683)" fill="#fe7934"/>
      </g>
      <g id="Group_255" data-name="Group 255" transform="translate(0 1.09)">
        <path id="Path_3" data-name="Path 3" d="M885.089,871.276l5.032-165.241A22.225,22.225,0,0,0,867.916,683H708.589a22.213,22.213,0,0,0-22.205,21.427L681.3,871.276Z" transform="translate(-681.3 -683)" fill="#fdd047"/>
      </g>
      <g id="Group_256" data-name="Group 256" transform="translate(111.181)">
        <path id="Path_4" data-name="Path 4" d="M989.4,865.233l-2.075-.052,4.98-161.973c0-18.21-17.017-20.078-18.21-20.234H895.6V680.9h78.652c.208,0,20.13,1.868,20.13,22.309Z" transform="translate(-895.6 -680.9)" fill="#fff"/>
      </g>
    </g>
    <g id="Man" transform="translate(306.304 355.912)">
      <g id="Group_257" data-name="Group 257" transform="translate(116.162 60.525)">
        <path id="Path_5" data-name="Path 5" d="M830.094,690.264H780.6l2.023-27.86.415-5.6,1.92-25.785.623-8.716H821.9l1.09,8.975v.052Z" transform="translate(-780.6 -622.3)" fill="#ffb1df"/>
      </g>
      <g id="Group_258" data-name="Group 258" transform="translate(118.237 69.241)">
        <path id="Path_6" data-name="Path 6" d="M824.911,639.359h0c-3.372,17.173-22.309,29.313-40.311,31.077l.415-5.6,1.867-25.733Z" transform="translate(-784.6 -639.1)" fill="#d35eaf"/>
      </g>
      <g id="Group_259" data-name="Group 259" transform="translate(106.478 17.775)">
        <path id="Path_7" data-name="Path 7" d="M767.779,539.9s-19.3,66.978,12.244,69.78c11.725,1.038,31.181-5.4,38.133-27.6,0,0,22.827-14.631,8.2-21.116l-4.669-18.729Z" transform="translate(-761.935 -539.9)" fill="#ffb1df"/>
      </g>
      <g id="Group_260" data-name="Group 260" transform="translate(93.181 0)">
        <path id="Path_8" data-name="Path 8" d="M805.252,554.49l-5.862,2.335-2.335-22.257s-48.042,17.588-58.574-3.528,18.729-33.982,53.9-18.729c0,0,29.313,1.193,22.257,32.789C814.643,545.1,806.445,543.906,805.252,554.49Z" transform="translate(-736.305 -505.638)" fill="#46105b"/>
      </g>
      <g id="Group_261" data-name="Group 261" transform="translate(0 105.195)">
        <path id="Path_9" data-name="Path 9" d="M722.46,708.4s-22,26.407-49.858,0l-25.785,8.145a69.084,69.084,0,0,0-43.891,41.816L556.7,882.928l210.429-2.179.727-72.582,54.268-24.955-22.257-41.764a53.78,53.78,0,0,0-40.156-27.964Z" transform="translate(-556.7 -708.4)" fill="#30a9fa"/>
      </g>
      <g id="Group_262" data-name="Group 262" transform="translate(108.587 182.394)">
        <path id="Path_10" data-name="Path 10" d="M936.118,942.8c-48.4,8.82-134.943-14.682-134.943-14.682a31.816,31.816,0,0,1-4.877-1.92c-14.942-7.264-18.573-22.983-18.573-22.983-8.82,7.315-11.725,4.41-11.725,4.41s12.4-15.149,19.818-18.781c.26-.1.467-.207.675-.311,7.315-2.957,19.04,7.315,19.04,7.315l73.308,4.41-9.027-17.432-1.764-3.424L917.8,857.2c1.349,2.231,2.594,4.41,3.787,6.485C963.822,937.252,936.118,942.8,936.118,942.8Z" transform="translate(-766 -857.2)" fill="#ffb1df"/>
      </g>
      <g id="Group_263" data-name="Group 263" transform="translate(108.587 214.041)">
        <path id="Path_11" data-name="Path 11" d="M796.3,955.554c-14.942-7.263-18.573-22.983-18.573-22.983-8.82,7.315-11.725,4.41-11.725,4.41s12.4-15.149,19.818-18.781Z" transform="translate(-766 -918.2)" fill="#d35eaf"/>
      </g>
      <g id="Group_264" data-name="Group 264" transform="translate(196.835 223.596)">
        <rect id="Rectangle_5" data-name="Rectangle 5" width="2.594" height="67.912" transform="translate(0 2.592) rotate(-87.625)" fill="#d35eaf"/>
      </g>
      <g id="Group_265" data-name="Group 265" transform="translate(121.815 67.366)">
        <path id="Path_12" data-name="Path 12" d="M791.861,638.658c2.853,1.92,8.923,4.617,14.994-1.712a.857.857,0,0,0-.726-1.453l-13.9,1.608A.857.857,0,0,0,791.861,638.658Z" transform="translate(-791.496 -635.485)" fill="#fff"/>
      </g>
      <g id="Group_266" data-name="Group 266" transform="translate(125.656 48.385)">
        <path id="Path_13" data-name="Path 13" d="M798.9,614.568l.571-15.668,2.075.1-.467,13.385,3.268-.207.1,2.075Z" transform="translate(-798.9 -598.9)" fill="#d35eaf"/>
      </g>
      <g id="Group_267" data-name="Group 267" transform="translate(113.775 46.881)">
        <circle id="Ellipse_1" data-name="Ellipse 1" cx="1.764" cy="1.764" r="1.764" fill="#d35eaf"/>
      </g>
      <g id="Group_268" data-name="Group 268" transform="translate(137.225 46.881)">
        <circle id="Ellipse_2" data-name="Ellipse 2" cx="1.764" cy="1.764" r="1.764" fill="#d35eaf"/>
      </g>
      <g id="Group_269" data-name="Group 269" transform="translate(109.948 40.55)">
        <ellipse id="Ellipse_3" data-name="Ellipse 3" cx="1.816" cy="5.188" rx="1.816" ry="5.188" transform="translate(0 3.604) rotate(-82.894)" fill="#d35eaf"/>
      </g>
      <g id="Group_270" data-name="Group 270" transform="translate(134.362 39.513)">
        <ellipse id="Ellipse_4" data-name="Ellipse 4" cx="5.188" cy="1.816" rx="5.188" ry="1.816" transform="matrix(0.993, -0.119, 0.119, 0.993, 0, 1.235)" fill="#d35eaf"/>
      </g>
      <g id="Group_271" data-name="Group 271" transform="translate(115.02 104.002)">
        <path id="Path_14" data-name="Path 14" d="M892.694,725.037c-17.225-13.9-59.041-16.6-63.814-16.861-9.494,9.027-19.04,13.178-28.431,12.348-13.593-1.193-21.738-12.3-22.049-12.763l1.66-1.193c.1.1,7.99,10.791,20.6,11.933,8.872.778,18-3.269,27.134-12.088l.311-.311h.467c1.919.1,46.745,2.283,65.474,17.328Z" transform="translate(-778.4 -706.1)" fill="#fff"/>
      </g>
      <g id="Group_272" data-name="Group 272" transform="translate(210.741 182.394)">
        <path id="Path_15" data-name="Path 15" d="M1016.493,863.737l-51.829,19.092-1.764-3.424,49.754-22.205C1014,859.431,1015.248,861.61,1016.493,863.737Z" transform="translate(-962.9 -857.2)" fill="#d35eaf"/>
      </g>
      <g id="Group_273" data-name="Group 273" transform="translate(192.063 174.347)">
        <rect id="Rectangle_6" data-name="Rectangle 6" width="2.075" height="46.952" transform="matrix(0.865, -0.502, 0.502, 0.865, 0, 1.042)" fill="#fff"/>
      </g>
    </g>
    <g id="Line" transform="translate(184.367 229.406)">
      <g id="Group_274" data-name="Group 274" transform="translate(4.323 37.458)">
        <path id="Path_16" data-name="Path 16" d="M333.113,551.382H330V496.387h73.671V372.911H538.562V334h3.113v42.024H406.784V499.5H333.113Z" transform="translate(-330 -334)" fill="#30a9fa"/>
      </g>
      <g id="Group_275" data-name="Group 275" transform="translate(4.323 278.186)">
        <path id="Path_17" data-name="Path 17" d="M424.423,833.8H330V798h3.113v32.685h91.31Z" transform="translate(-330 -798)" fill="#30a9fa"/>
      </g>
      <g id="Group_276" data-name="Group 276" transform="translate(0 269.997)">
        <ellipse id="Ellipse_5" data-name="Ellipse 5" cx="6.534" cy="5.94" rx="6.534" ry="5.94" transform="translate(0 0)" fill="#fdd047"/>
      </g>
      <g id="Group_277" data-name="Group 277" transform="translate(209.104 30.003)">
        <circle id="Ellipse_6" data-name="Ellipse 6" cx="5.346" cy="5.346" r="5.346" transform="translate(0 0)" fill="#fdd047"/>
      </g>
      <g id="Group_278" data-name="Group 278" transform="translate(0 249.8)">
        <ellipse id="Ellipse_7" data-name="Ellipse 7" cx="6.534" cy="5.346" rx="6.534" ry="5.346" transform="translate(0 0)" fill="#13e0cf"/>
      </g>
      <g id="Group_279" data-name="Group 279" transform="translate(212.884 0)">
        <path id="Path_18" data-name="Path 18" d="M735.113,281.1H732V261.8h52.919v3.113H735.113Z" transform="translate(-732 -261.8)" fill="#30a9fa"/>
      </g>
      <g id="Group_280" data-name="Group 280" transform="translate(209.104 12.182)">
        <ellipse id="Ellipse_8" data-name="Ellipse 8" cx="5.346" cy="6.534" rx="5.346" ry="6.534" transform="translate(0 0)" fill="#13e0cf"/>
      </g>
      <g id="Group_281" data-name="Group 281" transform="translate(406.504 22.413)">
        <path id="Path_19" data-name="Path 19" d="M1183.955,400.461h-3.113V308.113H1105.2V305h78.755Z" transform="translate(-1105.2 -305)" fill="#30a9fa"/>
      </g>
    </g>
    <g id="Video" transform="translate(153.41 261.676)">
      <g id="Group_282" data-name="Group 282" transform="translate(0 0)">
        <path id="Path_20" data-name="Path 20" d="M267.655,324H458.11a5.668,5.668,0,0,1,5.655,5.655V457.282a5.668,5.668,0,0,1-5.655,5.655H267.655A5.668,5.668,0,0,1,262,457.282V329.655A5.668,5.668,0,0,1,267.655,324Z" transform="translate(-262 -324)" fill="#13e0cf"/>
      </g>
      <g id="Group_283" data-name="Group 283" transform="translate(6.018 21.531)">
        <rect id="Rectangle_7" data-name="Rectangle 7" width="190.144" height="110.351" fill="#fff"/>
      </g>
      <g id="Group_285" data-name="Group 285" transform="translate(63.969 53.645)">
        <path id="Path_21" data-name="Path 21" d="M385.3,427.4v23.606l15.876-11.984Z" transform="translate(-385.3 -427.4)" fill="#fff"/>
      </g>
      <g id="Group_287" data-name="Group 287" transform="translate(46.33 42.802)">
        <g id="Group_286" data-name="Group 286">
          <path id="Path_22" data-name="Path 22" d="M374.128,452.155a22.828,22.828,0,1,1,22.828-22.828A22.828,22.828,0,0,1,374.128,452.155Zm0-40.83a18,18,0,1,0,18,18A18.012,18.012,0,0,0,374.128,411.325Z" transform="translate(-351.3 -406.5)" fill="#fff"/>
        </g>
      </g>
      <g id="Group_288" data-name="Group 288" transform="translate(11.829 7.003)">
        <path id="Path_23" data-name="Path 23" d="M284.8,341.7h0a4.185,4.185,0,0,0,4.2,4.2h69.313a4.185,4.185,0,0,0,4.2-4.2h0a4.185,4.185,0,0,0-4.2-4.2H289A4.152,4.152,0,0,0,284.8,341.7Z" transform="translate(-284.8 -337.498)" fill="#fff"/>
      </g>
      <g id="Group_289" data-name="Group 289" transform="translate(103.14 26.719)">
        <rect id="Rectangle_9" data-name="Rectangle 9" width="88.145" height="99.145" fill="#79f4e9"/>
      </g>
      <g id="Group_290" data-name="Group 290" transform="translate(159.794 38.288)">
        <path id="Path_24" data-name="Path 24" d="M532.7,391.927h0a2.137,2.137,0,0,0,2.127,2.127H546.5a2.137,2.137,0,0,0,2.127-2.127h0A2.137,2.137,0,0,0,546.5,389.8H534.827A2.171,2.171,0,0,0,532.7,391.927Z" transform="translate(-532.7 -389.8)" fill="#fff"/>
      </g>
      <g id="Group_291" data-name="Group 291" transform="translate(147.861 53.23)">
        <path id="Path_25" data-name="Path 25" d="M532.7,420.727h0a2.137,2.137,0,0,0,2.127,2.127h23.813a2.137,2.137,0,0,0,2.127-2.127h0a2.137,2.137,0,0,0-2.127-2.127H534.827A2.1,2.1,0,0,0,532.7,420.727Z" transform="translate(-532.7 -418.6)" fill="#fff"/>
      </g>
      <g id="Group_292" data-name="Group 292" transform="translate(140.598 45.759)">
        <path id="Path_26" data-name="Path 26" d="M532.7,406.327h0a2.137,2.137,0,0,0,2.127,2.127h30.921a2.137,2.137,0,0,0,2.127-2.127h0a2.137,2.137,0,0,0-2.127-2.127H534.827A2.137,2.137,0,0,0,532.7,406.327Z" transform="translate(-532.7 -404.2)" fill="#fff"/>
      </g>
      <g id="Group_293" data-name="Group 293" transform="translate(140.598 74.605)">
        <path id="Path_27" data-name="Path 27" d="M532.7,461.927h0a2.137,2.137,0,0,0,2.127,2.127h30.921a2.137,2.137,0,0,0,2.127-2.127h0a2.137,2.137,0,0,0-2.127-2.127H534.827A2.1,2.1,0,0,0,532.7,461.927Z" transform="translate(-532.7 -459.8)" fill="#fff"/>
      </g>
      <g id="Group_294" data-name="Group 294" transform="translate(140.598 82.387)">
        <path id="Path_28" data-name="Path 28" d="M532.7,476.927h0a2.137,2.137,0,0,0,2.127,2.127h30.921a2.137,2.137,0,0,0,2.127-2.127h0a2.137,2.137,0,0,0-2.127-2.127H534.827A2.1,2.1,0,0,0,532.7,476.927Z" transform="translate(-532.7 -474.8)" fill="#fff"/>
      </g>
      <g id="Group_295" data-name="Group 295" transform="translate(150.455 90.117)">
        <path id="Path_29" data-name="Path 29" d="M532.7,491.827h0a2.137,2.137,0,0,0,2.127,2.127h20.856a2.137,2.137,0,0,0,2.127-2.127h0a2.137,2.137,0,0,0-2.127-2.127H534.775A2.162,2.162,0,0,0,532.7,491.827Z" transform="translate(-532.7 -489.7)" fill="#fff"/>
      </g>
      <g id="Group_296" data-name="Group 296" transform="translate(131.778 65.214)">
        <path id="Path_30" data-name="Path 30" d="M532.7,442.841h0a1.151,1.151,0,0,0,1.141,1.141h41.764a1.151,1.151,0,0,0,1.141-1.141h0a1.151,1.151,0,0,0-1.141-1.141H533.841A1.119,1.119,0,0,0,532.7,442.841Z" transform="translate(-532.7 -441.7)" fill="#fff"/>
      </g>
      <g id="Group_297" data-name="Group 297" transform="translate(131.778 100.857)">
        <path id="Path_31" data-name="Path 31" d="M532.7,511.541h0a1.151,1.151,0,0,0,1.141,1.141h41.764a1.151,1.151,0,0,0,1.141-1.141h0a1.152,1.152,0,0,0-1.141-1.141H533.841A1.119,1.119,0,0,0,532.7,511.541Z" transform="translate(-532.7 -510.4)" fill="#fff"/>
      </g>
      <g id="Group_298" data-name="Group 298" transform="translate(163.062 8.249)">
        <circle id="Ellipse_9" data-name="Ellipse 9" cx="3.424" cy="3.424" r="3.424" fill="#fff"/>
      </g>
      <g id="Group_299" data-name="Group 299" transform="translate(174.424 8.249)">
        <circle id="Ellipse_10" data-name="Ellipse 10" cx="3.424" cy="3.424" r="3.424" fill="#fff"/>
      </g>
      <g id="Group_300" data-name="Group 300" transform="translate(186.097 8.249)">
        <circle id="Ellipse_11" data-name="Ellipse 11" cx="3.424" cy="3.424" r="3.424" fill="#fff"/>
      </g>
      <g id="Group_368" data-name="Group 368" transform="translate(11.58 26.719)">
        <rect id="Rectangle_9-2" data-name="Rectangle 9" width="86.068" height="99.145" fill="#79f4e9"/>
      </g>
      <g id="Group_369" data-name="Group 369" transform="translate(65.37 38.288)">
        <path id="Path_24-2" data-name="Path 24" d="M532.7,391.927h0a2.137,2.137,0,0,0,2.127,2.127H546.5a2.137,2.137,0,0,0,2.127-2.127h0A2.137,2.137,0,0,0,546.5,389.8H534.827A2.171,2.171,0,0,0,532.7,391.927Z" transform="translate(-532.7 -389.8)" fill="#fff"/>
      </g>
      <g id="Group_370" data-name="Group 370" transform="translate(53.437 53.23)">
        <path id="Path_25-2" data-name="Path 25" d="M532.7,420.727h0a2.137,2.137,0,0,0,2.127,2.127h23.813a2.137,2.137,0,0,0,2.127-2.127h0a2.137,2.137,0,0,0-2.127-2.127H534.827A2.1,2.1,0,0,0,532.7,420.727Z" transform="translate(-532.7 -418.6)" fill="#fff"/>
      </g>
      <g id="Group_371" data-name="Group 371" transform="translate(46.174 45.759)">
        <path id="Path_26-2" data-name="Path 26" d="M532.7,406.327h0a2.137,2.137,0,0,0,2.127,2.127h30.921a2.137,2.137,0,0,0,2.127-2.127h0a2.137,2.137,0,0,0-2.127-2.127H534.827A2.137,2.137,0,0,0,532.7,406.327Z" transform="translate(-532.7 -404.2)" fill="#fff"/>
      </g>
      <g id="Group_372" data-name="Group 372" transform="translate(46.174 74.605)">
        <path id="Path_27-2" data-name="Path 27" d="M532.7,461.927h0a2.137,2.137,0,0,0,2.127,2.127h30.921a2.137,2.137,0,0,0,2.127-2.127h0a2.137,2.137,0,0,0-2.127-2.127H534.827A2.1,2.1,0,0,0,532.7,461.927Z" transform="translate(-532.7 -459.8)" fill="#fff"/>
      </g>
      <g id="Group_373" data-name="Group 373" transform="translate(46.174 82.387)">
        <path id="Path_28-2" data-name="Path 28" d="M532.7,476.927h0a2.137,2.137,0,0,0,2.127,2.127h30.921a2.137,2.137,0,0,0,2.127-2.127h0a2.137,2.137,0,0,0-2.127-2.127H534.827A2.1,2.1,0,0,0,532.7,476.927Z" transform="translate(-532.7 -474.8)" fill="#fff"/>
      </g>
      <g id="Group_374" data-name="Group 374" transform="translate(56.032 90.117)">
        <path id="Path_29-2" data-name="Path 29" d="M532.7,491.827h0a2.137,2.137,0,0,0,2.127,2.127h20.856a2.137,2.137,0,0,0,2.127-2.127h0a2.137,2.137,0,0,0-2.127-2.127H534.775A2.162,2.162,0,0,0,532.7,491.827Z" transform="translate(-532.7 -489.7)" fill="#fff"/>
      </g>
      <g id="Group_375" data-name="Group 375" transform="translate(37.354 65.214)">
        <path id="Path_30-2" data-name="Path 30" d="M532.7,442.841h0a1.151,1.151,0,0,0,1.141,1.141h41.764a1.151,1.151,0,0,0,1.141-1.141h0a1.151,1.151,0,0,0-1.141-1.141H533.841A1.119,1.119,0,0,0,532.7,442.841Z" transform="translate(-532.7 -441.7)" fill="#fff"/>
      </g>
      <g id="Group_376" data-name="Group 376" transform="translate(37.354 100.857)">
        <path id="Path_31-2" data-name="Path 31" d="M532.7,511.541h0a1.151,1.151,0,0,0,1.141,1.141h41.764a1.151,1.151,0,0,0,1.141-1.141h0a1.152,1.152,0,0,0-1.141-1.141H533.841A1.119,1.119,0,0,0,532.7,511.541Z" transform="translate(-532.7 -510.4)" fill="#fff"/>
      </g>
    </g>
    <g id="Table" transform="translate(113.462 618.617)">
      <g id="Group_301" data-name="Group 301" transform="translate(0 0.934)">
        <path id="Path_32" data-name="Path 32" d="M804.46,1013.8l-554.868,29.417L185,1049.494v14.734H763.473l40.986-35.694Z" transform="translate(-185 -1013.8)" fill="#d3d3d3"/>
      </g>
      <g id="Group_302" data-name="Group 302" transform="translate(0 1.038)">
        <path id="Path_33" data-name="Path 33" d="M249.592,1014H804.46l-44.877,35.59H185Z" transform="translate(-185 -1014)" fill="#e6e6e6"/>
      </g>
      <g id="Group_303" data-name="Group 303" transform="translate(0 0)">
        <path id="Path_34" data-name="Path 34" d="M759.79,1050.132H185v-2.594H758.856L803.629,1012l1.66,2.075Z" transform="translate(-185 -1012)" fill="#fff"/>
      </g>
    </g>
    <g id="Paper" transform="translate(617.227 347.28)">
      <g id="Group_304" data-name="Group 304">
        <path id="Path_35" data-name="Path 35" d="M1256.649,517.068V621.5H1156V489h73.982l.675.726Z" transform="translate(-1156 -489)" fill="#b655ff"/>
      </g>
      <g id="Group_305" data-name="Group 305" transform="translate(74.657 0.726)">
        <path id="Path_36" data-name="Path 36" d="M1325.892,517.741V518H1299.9V490.4Z" transform="translate(-1299.9 -490.4)" fill="#d3d3d3"/>
      </g>
      <g id="Group_307" data-name="Group 307" transform="translate(15.876 35.487)">
        <g id="Group_306" data-name="Group 306">
          <path id="Path_37" data-name="Path 37" d="M1192.307,571.2l-1.349,4.773H1186.6l5.655-18.573h5.5l5.759,18.573H1199l-1.453-4.773Zm4.721-3.113-1.142-3.943c-.311-1.089-.674-2.49-.934-3.58h-.052c-.259,1.089-.571,2.49-.83,3.58l-1.089,3.943Z" transform="translate(-1186.6 -557.4)" fill="#fff"/>
        </g>
      </g>
      <g id="Group_308" data-name="Group 308" transform="translate(15.927 60.39)">
        <rect id="Rectangle_10" data-name="Rectangle 10" width="68.794" height="5.551" fill="#fff"/>
      </g>
      <g id="Group_309" data-name="Group 309" transform="translate(15.927 71.544)">
        <rect id="Rectangle_11" data-name="Rectangle 11" width="68.794" height="5.551" fill="#d793ff"/>
      </g>
      <g id="Group_310" data-name="Group 310" transform="translate(15.927 82.698)">
        <rect id="Rectangle_12" data-name="Rectangle 12" width="68.794" height="5.551" fill="#d793ff"/>
      </g>
      <g id="Group_311" data-name="Group 311" transform="translate(15.927 93.801)">
        <rect id="Rectangle_13" data-name="Rectangle 13" width="68.794" height="5.551" fill="#d793ff"/>
      </g>
      <g id="Group_312" data-name="Group 312" transform="translate(15.927 104.955)">
        <rect id="Rectangle_14" data-name="Rectangle 14" width="44.358" height="5.551" fill="#d793ff"/>
      </g>
    </g>
    <g id="Glass" transform="translate(510.092 581.678)">
      <path id="Path_38" data-name="Path 38" d="M988.67,948.167c0-4.773-10.065-7.367-19.559-7.367s-19.559,2.594-19.559,7.367a3.067,3.067,0,0,0,.1.726H949.5l3.528,60.078.052.674.674.207a50.853,50.853,0,0,0,15.3,2.335c9.494,0,15.1-2.231,15.357-2.335l.622-.259,3.58-60.753h0C988.618,948.686,988.67,948.427,988.67,948.167Zm-19.559-5.292c10.843,0,17.484,3.113,17.484,5.292,0,2.231-6.641,5.292-17.484,5.292s-17.484-3.113-17.484-5.292C951.627,945.936,958.268,942.875,969.111,942.875Zm13.9,65.318a44.925,44.925,0,0,1-13.956,1.971,50.08,50.08,0,0,1-13.956-2.023l-3.32-56.447c3.476,2.542,10.583,3.839,17.38,3.839,6.693,0,13.7-1.3,17.224-3.736Z" transform="translate(-949.5 -940.8)" fill="#fffffd"/>
      <g id="Group_313" data-name="Group 313" transform="translate(6.278 24.177)">
        <path id="Path_39" data-name="Path 39" d="M961.6,987.4h26.2l-2.75,40.156s-1.92,2.179-10.117,2.179c-8.716,0-10.635-2.179-10.635-2.179Z" transform="translate(-961.6 -987.4)" fill="#30a9fa"/>
      </g>
      <g id="Group_314" data-name="Group 314" transform="translate(6.278 21.012)">
        <ellipse id="Ellipse_12" data-name="Ellipse 12" cx="13.126" cy="2.957" rx="13.126" ry="2.957" fill="#fff"/>
      </g>
    </g>
    <g id="Books" transform="translate(579.741 558.332)">
      <g id="Group_315" data-name="Group 315" transform="translate(6.421 37.251)">
        <path id="Path_40" data-name="Path 40" d="M1099.742,996.29c-2.335,2.594-7.056,9.7.467,18.107a5.053,5.053,0,0,0,3.113,1.608l75.487,9.183,42.439-41.764-6.485.259-.726-8.82,4.877-4.15.1-3.113-30.713,1.089-86.33,26.1A5.871,5.871,0,0,0,1099.742,996.29Z" transform="translate(-1096.122 -967.6)" fill="#b655ff"/>
      </g>
      <g id="Group_317" data-name="Group 317" transform="translate(10.717 43.165)">
        <g id="Group_316" data-name="Group 316">
          <path id="Path_41" data-name="Path 41" d="M1219.992,989.013l-38.911,35.642-74.294-6.8a15.076,15.076,0,0,1-2.023-4.306,9.724,9.724,0,0,1-.312-1.608,8.638,8.638,0,0,1,1.868-6.485l76.835,6.381L1219.525,979l.208,4.566.1,2.023Z" transform="translate(-1104.403 -979)" fill="#fff"/>
        </g>
      </g>
      <g id="Group_319" data-name="Group 319" transform="translate(10.742 71.357)">
        <g id="Group_318" data-name="Group 318" transform="translate(0 0)">
          <rect id="Rectangle_15" data-name="Rectangle 15" width="1.556" height="75.487" transform="translate(0 1.55) rotate(-84.695)" fill="#e6e6e6"/>
        </g>
      </g>
      <g id="Group_320" data-name="Group 320" transform="translate(0 31.077)">
        <path id="Path_42" data-name="Path 42" d="M1087.665,967.685c-2.594,2.8-7.315,10.013-.052,20.7a5.215,5.215,0,0,0,2.7,2.023l39.429,12.036,77.2-27.134-.156-4.721-4.825,1.5-.26-11.206,4.669-1.193-.1-3.321-44.358-.674-71.285,10.428A5.3,5.3,0,0,0,1087.665,967.685Z" transform="translate(-1083.746 -955.7)" fill="#feb5bc"/>
      </g>
      <g id="Group_321" data-name="Group 321" transform="translate(3.442 36.109)">
        <path id="Path_43" data-name="Path 43" d="M1206.708,976.191l-73.048,25.629-40.675-11.206a5.427,5.427,0,0,0-.415-.57,13.259,13.259,0,0,1-1.972-4.929c-.1-.571-.156-1.142-.208-1.66a14.449,14.449,0,0,1,.311-3.476l.156-.623v-.1a15,15,0,0,1,1.5-3.632l40.934,14.215,72.114-24.436.259,2.283.156,1.556.311,2.646.156,1.608.208,2.023h0Z" transform="translate(-1090.38 -965.4)" fill="#fff"/>
      </g>
      <g id="Group_322" data-name="Group 322" transform="translate(8.224 0)">
        <path id="Path_44" data-name="Path 44" d="M1101.518,915.411c-1.5,3.424-3.632,10.324.415,16.706a5.4,5.4,0,0,0,3.372,2.335l49.806,10.324,59.922-24.643-.1-2.906-7.834.675-.778-11.31,8.093-2.8-.1-2.7-58.47-5.292-51.155,16.706A5.307,5.307,0,0,0,1101.518,915.411Z" transform="translate(-1099.597 -895.8)" fill="#30a9fa"/>
      </g>
      <g id="Group_323" data-name="Group 323" transform="translate(11.667 9.442)">
        <path id="Path_45" data-name="Path 45" d="M1213.455,926.763l-55.72,21.79-49.858-9.339a9.455,9.455,0,0,1-1.245-2.905,9.309,9.309,0,0,1-.311-1.66,14.552,14.552,0,0,1-.052-2.594c0-.26.052-.571.052-.83v-.052a17.819,17.819,0,0,1,.674-3.268c.259-.778.467-1.3.467-1.3L1158.1,936.1l54.89-22.1.052,1.245.1,3.009.051,1.66.1,3.32.052,1.66Z" transform="translate(-1106.234 -914)" fill="#fff"/>
      </g>
      <g id="Group_325" data-name="Group 325" transform="translate(12.479 9.442)">
        <g id="Group_324" data-name="Group 324">
          <path id="Path_46" data-name="Path 46" d="M1213.793,915.193,1158.851,937.5l-.207-.052L1107.8,927.9c.259-.778.467-1.3.467-1.3L1158.9,936.1l54.838-22.1Z" transform="translate(-1107.8 -914)" fill="#e6e6e6"/>
        </g>
      </g>
      <g id="Group_327" data-name="Group 327" transform="translate(11.597 13.645)">
        <g id="Group_326" data-name="Group 326">
          <path id="Path_47" data-name="Path 47" d="M1213.13,923.76,1157.514,945.6l-.259-.052-51.051-9.6h-.1l.156-.83h0l.155-.726,50.9,9.6,55.772-21.894Z" transform="translate(-1106.1 -922.1)" fill="#e6e6e6"/>
        </g>
      </g>
      <g id="Group_329" data-name="Group 329" transform="translate(11.753 18.573)">
        <g id="Group_328" data-name="Group 328">
          <path id="Path_48" data-name="Path 48" d="M1213.431,933.312l-55.305,21.531-.208-.052-51.207-10.013a9.35,9.35,0,0,1-.311-1.66l51.621,10.065,55.409-21.583Z" transform="translate(-1106.4 -931.6)" fill="#e6e6e6"/>
        </g>
      </g>
      <g id="Group_331" data-name="Group 331" transform="translate(5.631 46.226)">
        <g id="Group_330" data-name="Group 330">
          <path id="Path_49" data-name="Path 49" d="M1208.738,985.575,1135.69,1011.2,1095.015,1000a5.5,5.5,0,0,0-.415-.57l.156-.519,40.727,11.362,73.152-25.37Z" transform="translate(-1094.6 -984.9)" fill="#e6e6e6"/>
        </g>
      </g>
      <g id="Group_333" data-name="Group 333" transform="translate(3.452 42.646)">
        <g id="Group_332" data-name="Group 332">
          <path id="Path_50" data-name="Path 50" d="M1206.406,979.5l-72.893,24.384-42.905-12.711c-.1-.571-.156-1.141-.208-1.66l43.061,12.814L1206.2,978Z" transform="translate(-1090.4 -978)" fill="#e6e6e6"/>
        </g>
      </g>
      <g id="Group_335" data-name="Group 335" transform="translate(3.763 38.288)">
        <g id="Group_334" data-name="Group 334">
          <path id="Path_51" data-name="Path 51" d="M1206.228,971.208,1133.8,995.177l-.208-.1L1091.052,981.9H1091l.156-.571.052-.1.26-.83,42.335,13.126L1206.02,969.6Z" transform="translate(-1091 -969.6)" fill="#e6e6e6"/>
        </g>
      </g>
      <g id="Group_337" data-name="Group 337" transform="translate(12.739 53.126)">
        <g id="Group_336" data-name="Group 336">
          <path id="Path_52" data-name="Path 52" d="M1183.372,1034.88l-75.072-7.834.207-1.556,74.345,7.73L1221.5,998.2l1.037,1.141Z" transform="translate(-1108.3 -998.2)" fill="#e6e6e6"/>
        </g>
      </g>
      <g id="Group_339" data-name="Group 339" transform="translate(10.715 47.834)">
        <g id="Group_338" data-name="Group 338">
          <path id="Path_53" data-name="Path 53" d="M1219.783,989.92l-38.807,34.864h-.363l-75.9-6.848a9.741,9.741,0,0,1-.311-1.608l76.006,6.9L1219.68,988Z" transform="translate(-1104.4 -988)" fill="#e6e6e6"/>
        </g>
      </g>
    </g>
    <g id="Chat" transform="translate(450.17 203.569)">
      <g id="Group_340" data-name="Group 340" transform="translate(53.074 23.035)">
        <path id="Path_54" data-name="Path 54" d="M1023.927,264.545v38.133a8.115,8.115,0,0,1-8.145,8.093h-6.589l3.476,9.494a2.58,2.58,0,0,1-3.631,3.165l-23.709-12.659H944.445a8.115,8.115,0,0,1-8.145-8.093V264.545a8.126,8.126,0,0,1,8.145-8.145h71.388A8.182,8.182,0,0,1,1023.927,264.545Z" transform="translate(-936.3 -256.4)" fill="#0879f9"/>
      </g>
      <g id="Group_341" data-name="Group 341" opacity="0.81">
        <path id="Path_55" data-name="Path 55" d="M921.835,212H842.976A8.945,8.945,0,0,0,834,220.975V263.1a8.946,8.946,0,0,0,8.976,8.975h7.315l-3.839,10.48a2.835,2.835,0,0,0,3.995,3.476l26.2-13.956h45.188a8.945,8.945,0,0,0,8.975-8.975V220.975A8.978,8.978,0,0,0,921.835,212Z" transform="translate(-834 -212)" fill="#30a9fa"/>
      </g>
      <g id="Group_342" data-name="Group 342" transform="translate(136.474 8.435)">
        <rect id="Rectangle_16" data-name="Rectangle 16" width="8.56" height="3.113" transform="translate(0 8.304) rotate(-75.965)" fill="#30a9fa"/>
      </g>
      <g id="Group_343" data-name="Group 343" transform="translate(141.403 14.371)">
        <rect id="Rectangle_17" data-name="Rectangle 17" width="8.56" height="3.113" transform="matrix(0.814, -0.581, 0.581, 0.814, 0, 4.977)" fill="#30a9fa"/>
      </g>
      <g id="Group_344" data-name="Group 344" transform="translate(144.504 25.033)">
        <rect id="Rectangle_18" data-name="Rectangle 18" width="3.113" height="8.56" transform="matrix(0.099, -0.995, 0.995, 0.099, 0, 3.097)" fill="#30a9fa"/>
      </g>
    </g>
    <g id="Pencil_case" transform="translate(175.2 548.163)">
      <g id="Group_345" data-name="Group 345" transform="translate(1.245 42.957)">
        <ellipse id="Ellipse_13" data-name="Ellipse 13" cx="20.649" cy="7.056" rx="20.649" ry="7.056" fill="#fe7934"/>
      </g>
      <g id="Group_352" data-name="Group 352" transform="translate(1.401)">
        <g id="Group_346" data-name="Group 346">
          <path id="Path_56" data-name="Path 56" d="M317.958,887.354l14.008,82.283-11.258,1.868L306.7,889.222h.052l1.92-7.471,1.453-5.551,3.32,4.773,3.528,4.929.986,1.4Z" transform="translate(-306.7 -876.2)" fill="#30a9fa"/>
        </g>
        <g id="Group_347" data-name="Group 347" transform="translate(7.627 9.702)">
          <path id="Path_57" data-name="Path 57" d="M325.032,896.352l14.008,82.284-3.372.571L321.4,895.159l2.646-.26.986,1.4Z" transform="translate(-321.4 -894.9)" fill="#0879f9"/>
        </g>
        <g id="Group_348" data-name="Group 348" transform="translate(0.052)">
          <path id="Path_58" data-name="Path 58" d="M318.006,887.3l-2.957,2.231-2.8-1.5-2.49,2.439-2.957-1.245,1.92-7.471,1.453-5.551,3.32,4.773Z" transform="translate(-306.8 -876.2)" fill="#d1aa81"/>
        </g>
        <g id="Group_349" data-name="Group 349" transform="translate(14.319 92.711)">
          <path id="Path_59" data-name="Path 59" d="M334.3,1056.663l.83,4.825a1.707,1.707,0,0,0,1.971,1.4l6.952-1.193a1.707,1.707,0,0,0,1.4-1.971l-.83-4.825Z" transform="translate(-334.3 -1054.9)" fill="#f4a5b0"/>
        </g>
        <g id="Group_350" data-name="Group 350" transform="translate(1.971)">
          <path id="Path_60" data-name="Path 60" d="M315.273,880.973l-4.773.778,1.453-5.551Z" transform="translate(-310.5 -876.2)" fill="#1b1a1b"/>
        </g>
        <g id="Group_351" data-name="Group 351" transform="translate(12.535 84.882)">
          <rect id="Rectangle_19" data-name="Rectangle 19" width="11.414" height="8.664" transform="translate(0 1.912) rotate(-9.642)" fill="#a5a6aa"/>
        </g>
      </g>
      <g id="Group_359" data-name="Group 359" transform="translate(14.112 22.709)">
        <g id="Group_353" data-name="Group 353" transform="translate(0 4.165)">
          <path id="Path_61" data-name="Path 61" d="M331.2,991.762,342.562,928l8.716,1.556-11.362,63.762v.052l-3.372,4.929-2.49,3.683-1.245-4.358-1.245-4.513-.363-1.3Z" transform="translate(-331.2 -928)" fill="#30a9fa"/>
        </g>
        <g id="Group_354" data-name="Group 354" transform="translate(0 4.165)">
          <path id="Path_62" data-name="Path 62" d="M331.2,991.762,342.562,928l2.594.467-11.621,65.111-1.972-.467-.363-1.3Z" transform="translate(-331.2 -928)" fill="#0879f9"/>
        </g>
        <g id="Group_355" data-name="Group 355" transform="translate(0 67.097)">
          <path id="Path_63" data-name="Path 63" d="M331.2,1050.182l2.75-.882,1.66,1.816,2.438-1.089,1.868,1.712-3.372,4.929-2.49,3.683-1.245-4.358Z" transform="translate(-331.2 -1049.3)" fill="#d1aa81"/>
        </g>
        <g id="Group_356" data-name="Group 356" transform="translate(11.621)">
          <path id="Path_64" data-name="Path 64" d="M361.642,926.264l.674-3.735a1.383,1.383,0,0,0-1.089-1.556l-5.4-.986a1.383,1.383,0,0,0-1.556,1.089l-.674,3.735Z" transform="translate(-353.6 -919.972)" fill="#f4a5b0"/>
        </g>
        <g id="Group_357" data-name="Group 357" transform="translate(1.608 73.789)">
          <path id="Path_65" data-name="Path 65" d="M334.3,1062.2l3.736.675-2.49,3.684Z" transform="translate(-334.3 -1062.2)" fill="#1b1a1b"/>
        </g>
        <g id="Group_358" data-name="Group 358" transform="translate(10.228 4.237)">
          <rect id="Rectangle_20" data-name="Rectangle 20" width="6.693" height="8.872" transform="matrix(0.176, -0.984, 0.984, 0.176, 0, 6.589)" fill="#a5a6aa"/>
        </g>
      </g>
      <g id="Group_360" data-name="Group 360" transform="translate(1.193 49.079)">
        <path id="Path_66" data-name="Path 66" d="M306.3,970.8l3.735,47.263a4.913,4.913,0,0,0,3.787,4.514,58.015,58.015,0,0,0,26.252.1,4.913,4.913,0,0,0,3.735-4.462l3.735-47.367s.052,7.886-20.649,7.886C306.144,978.686,306.3,970.8,306.3,970.8Z" transform="translate(-306.3 -970.8)" fill="#fdd047"/>
      </g>
      <g id="Group_361" data-name="Group 361" transform="translate(0 47.264)">
        <path id="Path_67" data-name="Path 67" d="M343.948,1016.535l-2.075-.156,3.424-43.736c-6.952,5.655-15.3,5.5-19.559,5.448-19.818-.363-21.686-8.249-21.738-8.612l2.023-.415c0,.052,1.816,6.641,19.767,6.952,4.306.052,13.333.259,19.974-6.641l2.023-2.075Z" transform="translate(-304 -967.3)" fill="#fff"/>
      </g>
    </g>
    <g id="Laptop" transform="translate(237.6 523.831)">
      <g id="Group_362" data-name="Group 362" transform="translate(26.213 95.15)">
        <path id="Path_68" data-name="Path 68" d="M474.8,1012.7H709.458l-51.777,22-175.514-2.905Z" transform="translate(-474.8 -1012.7)" fill="#0879f9"/>
      </g>
      <g id="Group_363" data-name="Group 363" transform="translate(0 1.297)">
        <path id="Path_69" data-name="Path 69" d="M433.99,831.8H595.6a9.761,9.761,0,0,1,9.39,7.16L631.812,935.3a9.747,9.747,0,0,1-9.39,12.348H460.864a9.76,9.76,0,0,1-9.391-7.16l-26.823-96.343A9.709,9.709,0,0,1,433.99,831.8Z" transform="translate(-424.276 -831.8)" fill="#c1e1fb"/>
      </g>
      <g id="Group_364" data-name="Group 364" transform="translate(29.17 95.15)">
        <path id="Path_70" data-name="Path 70" d="M712.2,1012.7v7.782L658.867,1041.6,480.5,1040.56v-11.725l176.551,1.453Z" transform="translate(-480.5 -1012.7)" fill="#82c5f8"/>
      </g>
      <g id="Group_365" data-name="Group 365" transform="translate(83.84 44.871)">
        <ellipse id="Ellipse_14" data-name="Ellipse 14" cx="9.857" cy="11.414" rx="9.857" ry="11.414" transform="translate(0 5.13) rotate(-15.083)" fill="#fff"/>
      </g>
      <g id="Group_366" data-name="Group 366" transform="translate(68.755 0)">
        <path id="Path_71" data-name="Path 71" d="M694.7,936.434l-25.889-97.381a9.653,9.653,0,0,0-9.287-7.16H556.8V829.3H659.524a12.269,12.269,0,0,1,11.829,9.079l25.889,97.381Z" transform="translate(-556.8 -829.3)" fill="#fff"/>
      </g>
      <g id="Group_367" data-name="Group 367" transform="translate(28.91 94.06)">
        <path id="Path_72" data-name="Path 72" d="M658.159,1030.782h-.207L480,1029.225v-2.594l177.744,1.556,53.749-17.588.83,2.49Z" transform="translate(-480 -1010.6)" fill="#fff"/>
      </g>
    </g>
  </g>
</svg>
